<svg width="211" height="24" viewBox="0 0 211 24" fill="none" xmlns="http://www.w3.org/2000/svg">
<path d="M189.144 24C183.727 24 179.304 19.68 179.304 14.4V9.6C179.304 4.28571 183.727 0 189.144 0H201.144C206.595 0 210.984 4.28571 210.984 9.6V14.4C210.984 19.68 206.595 24 201.144 24H189.144ZM189.144 4.8C186.641 4.8 184.584 6.96 184.584 9.6V14.4C184.584 17.04 186.641 19.2 189.144 19.2H201.144C203.681 19.2 205.704 17.04 205.704 14.4V9.6C205.704 6.96 203.681 4.8 201.144 4.8H189.144Z" fill="#FFFEFE"/>
<path d="M189.144 24C183.727 24 179.304 19.68 179.304 14.4V9.6C179.304 4.28571 183.727 0 189.144 0H201.144C206.595 0 210.984 4.28571 210.984 9.6V14.4C210.984 19.68 206.595 24 201.144 24H189.144ZM189.144 4.8C186.641 4.8 184.584 6.96 184.584 9.6V14.4C184.584 17.04 186.641 19.2 189.144 19.2H201.144C203.681 19.2 205.704 17.04 205.704 14.4V9.6C205.704 6.96 203.681 4.8 201.144 4.8H189.144Z" fill="url(#paint0_linear_3360_1810)"/>
<path d="M167.207 14.4H165.047C165.047 17.04 167.105 19.2 169.607 19.2H174.647V24H169.607C164.19 24 159.767 19.68 159.767 14.4H148.247V24H142.967V7.2C142.967 3.22286 146.293 0 150.407 0H167.207C171.322 0 174.647 3.22286 174.647 7.2C174.647 11.1771 171.322 14.4 167.207 14.4ZM148.247 7.2V9.6H167.207C168.407 9.6 169.367 8.50286 169.367 7.2C169.367 5.86286 168.407 4.8 167.207 4.8H150.407C149.207 4.8 148.247 5.86286 148.247 7.2Z" fill="#FFFEFE"/>
<path d="M167.207 14.4H165.047C165.047 17.04 167.105 19.2 169.607 19.2H174.647V24H169.607C164.19 24 159.767 19.68 159.767 14.4H148.247V24H142.967V7.2C142.967 3.22286 146.293 0 150.407 0H167.207C171.322 0 174.647 3.22286 174.647 7.2C174.647 11.1771 171.322 14.4 167.207 14.4ZM148.247 7.2V9.6H167.207C168.407 9.6 169.367 8.50286 169.367 7.2C169.367 5.86286 168.407 4.8 167.207 4.8H150.407C149.207 4.8 148.247 5.86286 148.247 7.2Z" fill="url(#paint1_linear_3360_1810)"/>
<path d="M118.848 0H128.448C133.866 0 138.288 4.28571 138.288 9.6V24H133.008V16.8H114.288V24H109.008V9.6C109.008 4.28571 113.397 0 118.848 0ZM114.288 9.6V12H133.008V9.6C133.008 6.96 130.951 4.8 128.448 4.8H118.848C116.311 4.8 114.288 6.96 114.288 9.6Z" fill="#FFFEFE"/>
<path d="M118.848 0H128.448C133.866 0 138.288 4.28571 138.288 9.6V24H133.008V16.8H114.288V24H109.008V9.6C109.008 4.28571 113.397 0 118.848 0ZM114.288 9.6V12H133.008V9.6C133.008 6.96 130.951 4.8 128.448 4.8H118.848C116.311 4.8 114.288 6.96 114.288 9.6Z" fill="url(#paint2_linear_3360_1810)"/>
<path d="M87.3122 24C81.8951 24 77.4722 19.68 77.4722 14.4V7.2C77.4722 5.86286 76.5122 4.8 75.3122 4.8H72.6722V0H75.3122C79.3922 0 82.7522 3.22286 82.7522 7.2V14.4C82.7522 17.04 84.7751 19.2 87.3122 19.2H89.7122C92.2151 19.2 94.2722 17.04 94.2722 14.4V7.2C94.2722 3.22286 97.5979 0 101.712 0H104.352V4.8H101.712C100.512 4.8 99.5522 5.86286 99.5522 7.2V14.4C99.5522 19.68 95.1293 24 89.7122 24H87.3122Z" fill="#FFFEFE"/>
<path d="M87.3122 24C81.8951 24 77.4722 19.68 77.4722 14.4V7.2C77.4722 5.86286 76.5122 4.8 75.3122 4.8H72.6722V0H75.3122C79.3922 0 82.7522 3.22286 82.7522 7.2V14.4C82.7522 17.04 84.7751 19.2 87.3122 19.2H89.7122C92.2151 19.2 94.2722 17.04 94.2722 14.4V7.2C94.2722 3.22286 97.5979 0 101.712 0H104.352V4.8H101.712C100.512 4.8 99.5522 5.86286 99.5522 7.2V14.4C99.5522 19.68 95.1293 24 89.7122 24H87.3122Z" fill="url(#paint3_linear_3360_1810)"/>
<path d="M46.1762 24C40.7591 24 36.3362 19.68 36.3362 14.4V9.6C36.3362 4.28571 40.7591 0 46.1762 0H58.1762C63.6277 0 68.0162 4.28571 68.0162 9.6V14.4C68.0162 19.68 63.6277 24 58.1762 24H46.1762ZM46.1762 4.8C43.6734 4.8 41.6162 6.96 41.6162 9.6V14.4C41.6162 17.04 43.6734 19.2 46.1762 19.2H58.1762C60.7134 19.2 62.7362 17.04 62.7362 14.4V9.6C62.7362 6.96 60.7134 4.8 58.1762 4.8H46.1762Z" fill="#FFFEFE"/>
<path d="M46.1762 24C40.7591 24 36.3362 19.68 36.3362 14.4V9.6C36.3362 4.28571 40.7591 0 46.1762 0H58.1762C63.6277 0 68.0162 4.28571 68.0162 9.6V14.4C68.0162 19.68 63.6277 24 58.1762 24H46.1762ZM46.1762 4.8C43.6734 4.8 41.6162 6.96 41.6162 9.6V14.4C41.6162 17.04 43.6734 19.2 46.1762 19.2H58.1762C60.7134 19.2 62.7362 17.04 62.7362 14.4V9.6C62.7362 6.96 60.7134 4.8 58.1762 4.8H46.1762Z" fill="url(#paint4_linear_3360_1810)"/>
<path d="M24.24 24C18.8229 24 14.4 19.68 14.4 14.4V9.6C14.4 6.96 12.3429 4.8 9.84 4.8H7.44C6.24 4.8 5.28 5.86286 5.28 7.2V24H0V7.2C0 3.22286 3.32571 0 7.44 0H9.84C15.2571 0 19.68 4.28571 19.68 9.6V14.4C19.68 17.04 21.7371 19.2 24.24 19.2C25.44 19.2 26.4 18.1029 26.4 16.8V0H31.68V16.8C31.68 20.7771 28.3543 24 24.24 24Z" fill="#FFFEFE"/>
<path d="M24.24 24C18.8229 24 14.4 19.68 14.4 14.4V9.6C14.4 6.96 12.3429 4.8 9.84 4.8H7.44C6.24 4.8 5.28 5.86286 5.28 7.2V24H0V7.2C0 3.22286 3.32571 0 7.44 0H9.84C15.2571 0 19.68 4.28571 19.68 9.6V14.4C19.68 17.04 21.7371 19.2 24.24 19.2C25.44 19.2 26.4 18.1029 26.4 16.8V0H31.68V16.8C31.68 20.7771 28.3543 24 24.24 24Z" fill="url(#paint5_linear_3360_1810)"/>
<defs>
<linearGradient id="paint0_linear_3360_1810" x1="-33.2299" y1="3.52941" x2="190.871" y2="75.0345" gradientUnits="userSpaceOnUse">
<stop stop-color="#59ECC5"/>
<stop offset="0.995" stop-color="#FFCE42"/>
</linearGradient>
<linearGradient id="paint1_linear_3360_1810" x1="-33.2299" y1="3.52941" x2="190.871" y2="75.0345" gradientUnits="userSpaceOnUse">
<stop stop-color="#59ECC5"/>
<stop offset="0.995" stop-color="#FFCE42"/>
</linearGradient>
<linearGradient id="paint2_linear_3360_1810" x1="-33.2299" y1="3.52941" x2="190.871" y2="75.0345" gradientUnits="userSpaceOnUse">
<stop stop-color="#59ECC5"/>
<stop offset="0.995" stop-color="#FFCE42"/>
</linearGradient>
<linearGradient id="paint3_linear_3360_1810" x1="-33.2299" y1="3.52941" x2="190.871" y2="75.0345" gradientUnits="userSpaceOnUse">
<stop stop-color="#59ECC5"/>
<stop offset="0.995" stop-color="#FFCE42"/>
</linearGradient>
<linearGradient id="paint4_linear_3360_1810" x1="-33.2299" y1="3.52941" x2="190.871" y2="75.0345" gradientUnits="userSpaceOnUse">
<stop stop-color="#59ECC5"/>
<stop offset="0.995" stop-color="#FFCE42"/>
</linearGradient>
<linearGradient id="paint5_linear_3360_1810" x1="-33.2299" y1="3.52941" x2="190.871" y2="75.0345" gradientUnits="userSpaceOnUse">
<stop stop-color="#59ECC5"/>
<stop offset="0.995" stop-color="#FFCE42"/>
</linearGradient>
</defs>
</svg>
