<svg width="32" height="32" viewBox="0 0 32 32" fill="none" xmlns="http://www.w3.org/2000/svg">
<path d="M16.0003 29.3332C23.3641 29.3332 29.3337 23.3636 29.3337 15.9998C29.3337 8.63604 23.3641 2.6665 16.0003 2.6665C8.63653 2.6665 2.66699 8.63604 2.66699 15.9998C2.66699 23.3636 8.63653 29.3332 16.0003 29.3332Z" stroke="black" stroke-width="2" stroke-linecap="round" stroke-linejoin="round"/>
<path d="M13.3337 10.6667V16H18.0003C19.4731 16 20.667 14.8061 20.667 13.3333C20.667 11.8606 19.4731 10.6667 18.0003 10.6667H16.667M13.3337 10.6667H10.667M13.3337 10.6667V8M13.3337 10.6667H16.667M16.667 10.6667V8" stroke="black" stroke-width="2" stroke-linecap="round" stroke-linejoin="round"/>
<path d="M13.3337 21.3333V16H19.3337C20.8064 16 22.0003 17.1939 22.0003 18.6667C22.0003 20.1394 20.8064 21.3333 19.3337 21.3333H16.667M13.3337 21.3333V24M13.3337 21.3333H10.667H16.667M13.3337 21.3333H16.667M16.667 21.3333V24" stroke="black" stroke-width="2" stroke-linecap="round" stroke-linejoin="round"/>
</svg>
