<svg width="14" height="14" viewBox="0 0 14 14" fill="none" xmlns="http://www.w3.org/2000/svg">
<path d="M6.99988 5.94412L12.4719 0.472123C12.6119 0.332088 12.8018 0.253418 12.9999 0.253418C13.1979 0.253418 13.3878 0.332088 13.5279 0.472123C13.6679 0.612157 13.7466 0.802084 13.7466 1.00012C13.7466 1.19816 13.6679 1.38809 13.5279 1.52812L8.05588 7.00012L13.5279 12.4721C13.6679 12.6122 13.7466 12.8021 13.7466 13.0001C13.7466 13.1982 13.6679 13.3881 13.5279 13.5281C13.3878 13.6682 13.1979 13.7468 12.9999 13.7468C12.8018 13.7468 12.6119 13.6682 12.4719 13.5281L6.99988 8.05612L1.52788 13.5281C1.38784 13.6682 1.19792 13.7468 0.999879 13.7468C0.80184 13.7468 0.611913 13.6682 0.471879 13.5281C0.331844 13.3881 0.253174 13.1982 0.253174 13.0001C0.253174 12.8021 0.331844 12.6122 0.471879 12.4721L5.94388 7.00012L0.471879 1.52812C0.331844 1.38809 0.253174 1.19816 0.253174 1.00012C0.253174 0.802084 0.331844 0.612157 0.471879 0.472123C0.611913 0.332088 0.80184 0.253418 0.999879 0.253418C1.19792 0.253418 1.38784 0.332088 1.52788 0.472123L6.99988 5.94412Z" fill="black"/>
</svg>
