<svg width="24" height="24" viewBox="0 0 24 24" fill="none" xmlns="http://www.w3.org/2000/svg">
<g clip-path="url(#clip0_3282_5082)">
<path d="M12 19.5C7.8645 19.5 4.5 16.1355 4.5 12C4.5 7.8645 7.8645 4.5 12 4.5C16.1355 4.5 19.5 7.8645 19.5 12C19.5 16.1355 16.1355 19.5 12 19.5ZM12 3C7.03725 3 3 7.03725 3 12C3 16.9628 7.03725 21 12 21C16.9628 21 21 16.9628 21 12C21 7.03725 16.9628 3 12 3Z" fill="#8C889A"/>
<path d="M16.4214 13.6005C16.2493 13.501 16.0446 13.4739 15.8525 13.5253C15.6604 13.5766 15.4965 13.7021 15.3969 13.8743C15.0667 14.4437 14.5928 14.9166 14.0228 15.2457C13.4527 15.5749 12.8062 15.7487 12.1479 15.75C11.4898 15.7488 10.8436 15.575 10.2736 15.246C9.70363 14.917 9.2299 14.4443 8.89967 13.875C8.80012 13.7027 8.63621 13.5771 8.44401 13.5257C8.25181 13.4743 8.04706 13.5013 7.8748 13.6009C7.70254 13.7004 7.57689 13.8643 7.52548 14.0565C7.47407 14.2487 7.50112 14.4535 7.60067 14.6257C8.06313 15.4225 8.72634 16.0842 9.52419 16.5447C10.322 17.0053 11.2267 17.2487 12.1479 17.2507C13.0692 17.249 13.974 17.0057 14.7719 16.5451C15.5698 16.0845 16.2329 15.4227 16.6952 14.6257C16.7446 14.5405 16.7767 14.4463 16.7896 14.3486C16.8026 14.2509 16.7962 14.1516 16.7708 14.0564C16.7454 13.9612 16.7014 13.8719 16.6415 13.7937C16.5815 13.7155 16.5068 13.6498 16.4214 13.6005ZM9.00017 12C9.19909 12 9.38985 11.921 9.5305 11.7803C9.67116 11.6397 9.75017 11.4489 9.75017 11.25V9C9.75017 8.80109 9.67116 8.61032 9.5305 8.46967C9.38985 8.32902 9.19909 8.25 9.00017 8.25C8.80126 8.25 8.6105 8.32902 8.46984 8.46967C8.32919 8.61032 8.25017 8.80109 8.25017 9V11.25C8.25017 11.4489 8.32919 11.6397 8.46984 11.7803C8.6105 11.921 8.80126 12 9.00017 12ZM15.0002 12C15.1991 12 15.3899 11.921 15.5305 11.7803C15.6712 11.6397 15.7502 11.4489 15.7502 11.25V9C15.7502 8.80109 15.6712 8.61032 15.5305 8.46967C15.3899 8.32902 15.1991 8.25 15.0002 8.25C14.8013 8.25 14.6105 8.32902 14.4698 8.46967C14.3292 8.61032 14.2502 8.80109 14.2502 9V11.25C14.2502 11.4489 14.3292 11.6397 14.4698 11.7803C14.6105 11.921 14.8013 12 15.0002 12Z" fill="#8C889A"/>
</g>
<defs>
<clipPath id="clip0_3282_5082">
<rect width="24" height="24" fill="white"/>
</clipPath>
</defs>
</svg>
