<svg width="75" height="75" viewBox="0 0 75 75" fill="none" xmlns="http://www.w3.org/2000/svg">
<path d="M43.125 74.0625H9.375C4.7175 74.0625 0.9375 70.275 0.9375 65.625V9.375C0.9375 4.7175 4.725 0.9375 9.375 0.9375H65.625C70.2825 0.9375 74.0625 4.725 74.0625 9.375V43.1306C74.0625 44.6869 72.8063 45.9431 71.25 45.9431C69.6937 45.9431 68.4375 44.6869 68.4375 43.1306V9.37687C68.4375 7.82062 67.1719 6.56437 65.625 6.56437H9.375C7.81875 6.56437 6.5625 7.82812 6.5625 9.37687V65.6231C6.5625 67.1794 7.82812 68.4356 9.375 68.4356H43.125C44.6813 68.4356 45.9375 69.6937 45.9375 71.2481C45.9375 72.8044 44.6813 74.0625 43.125 74.0625ZM3.75 53.4356C3.19376 53.4339 2.65045 53.2677 2.18853 52.9578C1.7266 52.6479 1.36671 52.2082 1.1542 51.6942C0.94168 51.1801 0.886042 50.6147 0.99429 50.0691C1.10254 49.5235 1.36983 49.0221 1.7625 48.6281L15.7725 34.6237C17.0225 33.3708 18.6356 32.5438 20.3826 32.26C22.1295 31.9762 23.9214 32.2503 25.5037 33.0431L40.7606 40.6725C41.8425 41.2163 43.1419 41.0062 43.995 40.1456L69.255 14.8819C69.7874 14.3754 70.4967 14.097 71.2316 14.1063C71.9664 14.1156 72.6684 14.4117 73.1879 14.9314C73.7075 15.4512 74.0032 16.1534 74.0121 16.8882C74.021 17.623 73.7424 18.3322 73.2356 18.8644L47.9775 44.1263C46.7277 45.3795 45.1147 46.2069 43.3678 46.491C41.6208 46.7751 39.8288 46.5014 38.2463 45.7088L22.9894 38.0775C22.4638 37.8114 21.8673 37.7192 21.2859 37.8143C20.7046 37.9093 20.1685 38.1867 19.755 38.6063L5.73562 52.6087C5.19187 53.1637 4.47 53.4338 3.75 53.4338V53.4356ZM31.875 29.0569C27.225 29.0569 23.4375 25.2694 23.4375 20.6194C23.4375 15.9694 27.225 12.18 31.875 12.18C36.525 12.18 40.3125 15.9675 40.3125 20.6175C40.3125 25.2675 36.525 29.0569 31.875 29.0569ZM31.875 17.8069C30.3281 17.8069 29.0625 19.0706 29.0625 20.6194C29.0625 22.1663 30.3281 23.4319 31.875 23.4319C33.4219 23.4319 34.6875 22.1663 34.6875 20.6194C34.6875 19.0706 33.4219 17.8069 31.875 17.8069ZM60 74.0625C58.4437 74.0625 57.1875 72.8063 57.1875 71.25V54.3731C57.1875 52.8169 58.4437 51.5606 60 51.5606C61.5563 51.5606 62.8125 52.8169 62.8125 54.3731V71.2481C62.8125 72.8044 61.5563 74.0625 60 74.0625ZM71.25 62.8125C70.5563 62.8125 69.87 62.5556 69.3244 62.0456L60 53.2912L50.6756 62.055C50.4068 62.3085 50.0906 62.5065 49.7452 62.6375C49.3997 62.7685 49.0317 62.83 48.6624 62.8186C48.2931 62.8071 47.9297 62.7228 47.5931 62.5705C47.2564 62.4182 46.9531 62.201 46.7006 61.9312C46.4476 61.6624 46.2501 61.3463 46.1194 61.001C45.9887 60.6557 45.9273 60.288 45.9388 59.919C45.9503 59.55 46.0344 59.1869 46.1864 58.8504C46.3383 58.5139 46.5551 58.2107 46.8244 57.9581L56.6869 48.6956C57.0871 48.2029 57.5922 47.8057 58.1653 47.5329C58.7385 47.2601 59.3652 47.1186 60 47.1188C61.2938 47.1188 62.505 47.7 63.3131 48.6937L73.1756 57.9562C73.5863 58.3418 73.8714 58.842 73.9942 59.3917C74.1169 59.9415 74.0715 60.5154 73.8639 61.0391C73.6563 61.5627 73.296 62.0118 72.8299 62.328C72.3637 62.6443 71.8133 62.8131 71.25 62.8125Z" fill="#111111"/>
</svg>
