<svg width="24" height="24" viewBox="0 0 24 24" fill="none" xmlns="http://www.w3.org/2000/svg">
<g clip-path="url(#clip0_3282_5048)">
<path d="M18.75 3.5C19.612 3.5 20.4386 3.84241 21.0481 4.4519C21.6576 5.0614 22 5.88805 22 6.75V17.253C22 18.115 21.6576 18.9416 21.0481 19.5511C20.4386 20.1606 19.612 20.503 18.75 20.503H5.25C4.38805 20.503 3.5614 20.1606 2.9519 19.5511C2.34241 18.9416 2 18.115 2 17.253V6.751C1.99987 6.32412 2.08384 5.9014 2.2471 5.50697C2.41037 5.11255 2.64975 4.75415 2.95155 4.45226C3.25335 4.15036 3.61167 3.91088 4.00605 3.74749C4.40042 3.5841 4.82312 3.5 5.25 3.5H18.75ZM18.75 5H5.25C4.78587 5 4.34075 5.18437 4.01256 5.51256C3.68437 5.84075 3.5 6.28587 3.5 6.75V17.253C3.5 18.22 4.284 19.003 5.25 19.003H18.75C19.2141 19.003 19.6592 18.8186 19.9874 18.4904C20.3156 18.1622 20.5 17.7171 20.5 17.253V6.751C20.5001 6.5211 20.455 6.29343 20.3671 6.081C20.2792 5.86856 20.1503 5.67553 19.9878 5.51292C19.8253 5.35031 19.6323 5.22131 19.4199 5.13331C19.2075 5.0453 18.9799 5 18.75 5ZM8.015 8.873C8.611 8.873 9.034 8.954 9.517 9.186C9.591 9.22152 9.65728 9.27127 9.71205 9.33241C9.76682 9.39355 9.80902 9.46487 9.83623 9.54232C9.86343 9.61976 9.87512 9.70181 9.87062 9.78377C9.86612 9.86573 9.84552 9.946 9.81 10.02C9.77448 10.094 9.72473 10.1603 9.66359 10.2151C9.60245 10.2698 9.53113 10.312 9.45368 10.3392C9.37624 10.3664 9.29419 10.3781 9.21223 10.3736C9.13027 10.3691 9.05 10.3485 8.976 10.313C8.676 10.169 8.436 10.123 8.015 10.123C7.148 10.123 6.511 10.919 6.511 11.995C6.511 13.072 7.149 13.871 8.015 13.871C8.443 13.871 8.806 13.691 8.995 13.371L9 13.354V12.619L8.624 12.62C8.47436 12.62 8.32969 12.5663 8.21629 12.4687C8.10288 12.371 8.02826 12.236 8.006 12.088L8 11.996C8 11.682 8.231 11.423 8.533 11.378L8.625 11.371H9.627C9.941 11.371 10.2 11.602 10.245 11.904L10.252 11.996L10.25 13.544L10.244 13.599L10.223 13.689L10.203 13.744C9.826 14.634 8.962 15.12 8.015 15.12C6.389 15.12 5.261 13.708 5.261 11.994C5.261 10.282 6.388 8.872 8.015 8.872V8.873ZM12.629 8.995C12.943 8.995 13.203 9.226 13.247 9.528L13.254 9.62V14.382C13.2537 14.5396 13.1939 14.6912 13.0865 14.8065C12.9792 14.9219 12.8323 14.9924 12.6751 15.004C12.518 15.0157 12.3623 14.9675 12.2391 14.8692C12.116 14.771 12.0345 14.6298 12.011 14.474L12.004 14.382V9.62C12.004 9.275 12.284 8.995 12.629 8.995ZM15.625 8.995L17.622 9C17.7792 9.00129 17.9302 9.0618 18.0448 9.16945C18.1594 9.27711 18.2292 9.424 18.2403 9.58084C18.2514 9.73768 18.203 9.89295 18.1047 10.0157C18.0064 10.1384 17.8655 10.2196 17.71 10.243L17.618 10.25L16.247 10.245V11.998L17.37 12C17.684 12 17.944 12.232 17.988 12.533L17.995 12.625C17.9952 12.775 17.9415 12.92 17.8436 13.0336C17.7458 13.1473 17.6103 13.2219 17.462 13.244L17.37 13.25H16.247V14.365C16.247 14.5146 16.1933 14.6593 16.0957 14.7727C15.998 14.8861 15.863 14.9607 15.715 14.983L15.623 14.99C15.473 14.9902 15.328 14.9365 15.2144 14.8386C15.1007 14.7408 15.0261 14.6053 15.004 14.457L14.998 14.365V9.617C14.9983 9.46724 15.0524 9.32257 15.1504 9.20933C15.2484 9.09609 15.3838 9.02181 15.532 9L15.625 8.994V8.995Z" fill="#8C889A"/>
</g>
<defs>
<clipPath id="clip0_3282_5048">
<rect width="24" height="24" fill="white"/>
</clipPath>
</defs>
</svg>
