<svg width="42" height="42" viewBox="0 0 42 42" fill="none" xmlns="http://www.w3.org/2000/svg">
<path d="M24.085 2.08152C25.8167 1.71395 27.7705 2.61409 28.4566 4.28367C28.9728 5.2998 28.6069 6.52829 29.182 7.52155C29.8436 8.78762 31.2158 9.67796 32.6681 9.60935C34.5223 9.60771 36.2017 11.1695 36.3749 13.009C36.5922 14.7831 35.3571 16.5785 33.6434 17.0522C32.611 17.3316 31.4495 17.1992 30.5509 16.6046C29.507 15.9446 28.8193 14.7537 28.8079 13.5138C28.8242 11.9879 27.8979 10.4817 26.4685 9.90667C25.5602 9.43291 24.4754 9.77924 23.559 9.34306C22.3109 8.8203 21.3176 7.59343 21.2572 6.21627C21.2228 5.50073 21.1738 4.72149 21.5839 4.09253C22.0919 3.10745 23.0346 2.40008 24.0866 2.08315L24.085 2.08152Z" fill="#436BD1"/>
<path d="M16.1337 9.80004C18.0352 9.0992 20.3991 10.2297 20.9823 12.1884C21.7469 14.1651 20.422 16.5797 18.375 17.0665C17.5631 17.2364 16.6973 17.1433 15.9295 17.4978C14.2615 18.1512 13.2438 20.1132 13.6946 21.8482C13.9528 23.0423 14.8382 24.0617 15.9621 24.5224C16.8165 24.8639 17.7722 24.7103 18.6364 25.0207C20.2014 25.5238 21.2649 27.151 21.1996 28.7764C21.1212 29.6227 20.8141 30.4705 20.2374 31.106C19.2588 32.2381 17.5664 32.7004 16.1582 32.1793C14.9869 31.7905 14.0442 30.7842 13.7371 29.5884C13.5231 28.8401 13.6113 28.038 13.3908 27.2915C13.0167 26.3668 12.2946 25.5827 11.3994 25.1416C10.3032 24.6074 8.97014 24.9782 7.92135 24.3052C6.17335 23.3544 5.43658 20.9039 6.48047 19.1837C7.02284 18.0369 8.24317 17.3262 9.48147 17.22C10.1366 17.1449 10.8358 17.1629 11.4271 16.8312C12.4596 16.3232 13.3124 15.3528 13.4806 14.1929C13.6064 13.4137 13.5885 12.5952 13.9233 11.8633C14.3236 10.8962 15.1747 10.1839 16.1304 9.80004H16.1337Z" fill="#40C7A3"/>
<path d="M24.2807 17.2633C26.1087 16.8794 28.0952 18.0703 28.6147 19.869C29.1473 21.398 28.4889 23.2016 27.169 24.1132C26.3652 24.7013 25.318 24.8826 24.346 24.7323C22.8872 24.5248 21.6276 23.3437 21.3074 21.9094C21.1 20.8981 21.2176 19.7824 21.8155 18.9198C22.3677 18.0621 23.2842 17.4691 24.279 17.2633H24.2807Z" fill="#DAB64E"/>
<path d="M31.7517 24.8917C33.6369 24.431 35.6822 25.7429 36.1543 27.6052C36.6902 29.4088 35.6283 31.4949 33.8607 32.1337C33.0079 32.4947 32.0457 32.3346 31.1848 32.6548C29.8191 33.2004 28.8029 34.5825 28.8062 36.0724C28.7997 37.1424 28.388 38.2255 27.5973 38.9623C26.5436 39.9441 24.91 40.3051 23.5736 39.7138C22.1834 39.1714 21.1722 37.742 21.2245 36.2357C21.146 34.8145 22.0053 33.4422 23.2682 32.8116C24.1062 32.3313 25.1125 32.511 26.011 32.2464C27.202 31.9442 28.1838 30.9934 28.5775 29.8351C28.8862 29.0526 28.718 28.1819 28.9712 27.3879C29.3976 26.1594 30.4676 25.1564 31.7517 24.8934V24.8917Z" fill="#D06E43"/>
</svg>
