<svg width="24" height="24" viewBox="0 0 24 24" fill="none" xmlns="http://www.w3.org/2000/svg">
<g clip-path="url(#clip0_3282_5032)">
<path d="M22 12.9825V18C22 19.5188 20.7687 20.75 19.25 20.75H4.75C3.23125 20.75 2 19.5188 2 18V6C2 4.48125 3.23125 3.25 4.75 3.25H19.25C20.7687 3.25 22 4.48125 22 6V12.9825ZM20.5 11.2335V6C20.5 5.83585 20.4677 5.6733 20.4048 5.52165C20.342 5.36999 20.25 5.23219 20.1339 5.11612C20.0178 5.00004 19.88 4.90797 19.7284 4.84515C19.5767 4.78233 19.4142 4.75 19.25 4.75H4.75C4.58585 4.75 4.4233 4.78233 4.27165 4.84515C4.11999 4.90797 3.98219 5.00004 3.86612 5.11612C3.75004 5.23219 3.65797 5.36999 3.59515 5.52165C3.53233 5.6733 3.5 5.83585 3.5 6V14.0737C3.83106 14.0246 4.16531 13.9999 4.5 14C6.06815 13.9977 7.58778 14.5436 8.796 15.5433C10.0085 12.384 13.0525 10.25 16.5 10.25C18.04 10.25 19.4765 10.6433 20.5 11.2335ZM20.5 13.161C20.375 12.966 20.0047 12.6535 19.477 12.3895C18.6742 11.988 17.6495 11.75 16.5 11.75C13.646 11.75 11.1297 13.5375 10.1617 16.1725C10.0977 16.347 9.98825 16.6488 9.83375 17.0767C9.65375 17.576 9.02625 17.7355 8.62975 17.3828C8.2445 17.0398 7.9605 16.7953 7.78275 16.6528C6.85236 15.9047 5.69382 15.4979 4.5 15.5C4.161 15.5 3.82675 15.532 3.5 15.595V18C3.5 18.1642 3.53233 18.3267 3.59515 18.4784C3.65797 18.63 3.75004 18.7678 3.86612 18.8839C3.98219 19 4.11999 19.092 4.27165 19.1549C4.4233 19.2177 4.58585 19.25 4.75 19.25H19.25C19.4142 19.25 19.5767 19.2177 19.7284 19.1549C19.88 19.092 20.0178 19 20.1339 18.8839C20.25 18.7678 20.342 18.63 20.4048 18.4784C20.4677 18.3267 20.5 18.1642 20.5 18V13.1608V13.161ZM7.5 11.25C6.90326 11.25 6.33097 11.0129 5.90901 10.591C5.48705 10.169 5.25 9.59674 5.25 9C5.25 8.40326 5.48705 7.83097 5.90901 7.40901C6.33097 6.98705 6.90326 6.75 7.5 6.75C8.09674 6.75 8.66903 6.98705 9.09099 7.40901C9.51295 7.83097 9.75 8.40326 9.75 9C9.75 9.59674 9.51295 10.169 9.09099 10.591C8.66903 11.0129 8.09674 11.25 7.5 11.25ZM7.5 9.75C7.69891 9.75 7.88968 9.67098 8.03033 9.53033C8.17098 9.38968 8.25 9.19891 8.25 9C8.25 8.80109 8.17098 8.61032 8.03033 8.46967C7.88968 8.32902 7.69891 8.25 7.5 8.25C7.30109 8.25 7.11032 8.32902 6.96967 8.46967C6.82902 8.61032 6.75 8.80109 6.75 9C6.75 9.19891 6.82902 9.38968 6.96967 9.53033C7.11032 9.67098 7.30109 9.75 7.5 9.75Z" fill="#8C889A"/>
</g>
<defs>
<clipPath id="clip0_3282_5032">
<rect width="24" height="24" fill="white"/>
</clipPath>
</defs>
</svg>
