<svg width="24" height="24" viewBox="0 0 24 24" fill="none" xmlns="http://www.w3.org/2000/svg">
<g clip-path="url(#clip0_3282_5072)">
<path d="M6 10C7.10456 10 8 9.10456 8 8C8 6.89544 7.10456 6 6 6C4.89544 6 4 6.89544 4 8C4 9.10456 4.89544 10 6 10Z" stroke="#8C889A" stroke-width="1.5" stroke-linejoin="round"/>
<path d="M6 8.5C6.27614 8.5 6.5 8.27614 6.5 8C6.5 7.72386 6.27614 7.5 6 7.5C5.72386 7.5 5.5 7.72386 5.5 8C5.5 8.27614 5.72386 8.5 6 8.5Z" fill="#8C889A"/>
<path d="M11 8L20 8" stroke="#8C889A" stroke-width="1.5" stroke-linecap="round" stroke-linejoin="round"/>
<path d="M11 15L20 15" stroke="#8C889A" stroke-width="1.5" stroke-linecap="round" stroke-linejoin="round"/>
<path d="M6 17.5C7.10456 17.5 8 16.6046 8 15.5C8 14.3954 7.10456 13.5 6 13.5C4.89544 13.5 4 14.3954 4 15.5C4 16.6046 4.89544 17.5 6 17.5Z" stroke="#8C889A" stroke-width="1.5" stroke-linejoin="round"/>
</g>
<defs>
<clipPath id="clip0_3282_5072">
<rect width="24" height="24" fill="white"/>
</clipPath>
</defs>
</svg>
