<svg width="24" height="24" viewBox="0 0 24 24" fill="none" xmlns="http://www.w3.org/2000/svg">
<g clip-path="url(#clip0_3004_128)">
<path d="M17.5 8C18.8807 8 20 6.8807 20 5.5C20 4.11929 18.8807 3 17.5 3C16.1193 3 15 4.11929 15 5.5C15 6.8807 16.1193 8 17.5 8Z" stroke="#8C889A" stroke-width="1.5" stroke-linejoin="round"/>
<path d="M6.5 14.5C7.8807 14.5 9 13.3807 9 12C9 10.6193 7.8807 9.5 6.5 9.5C5.1193 9.5 4 10.6193 4 12C4 13.3807 5.1193 14.5 6.5 14.5Z" stroke="#8C889A" stroke-width="1.5" stroke-linejoin="round"/>
<path d="M15.0005 6.78711L8.66992 10.6226" stroke="#8C889A" stroke-width="1.5" stroke-linejoin="round"/>
<path d="M8.66895 13.2817L15.3391 17.2232" stroke="#8C889A" stroke-width="1.5" stroke-linejoin="round"/>
<path d="M17.5 16C18.8807 16 20 17.1193 20 18.5C20 19.8807 18.8807 21 17.5 21C16.1193 21 15 19.8807 15 18.5C15 17.1193 16.1193 16 17.5 16Z" stroke="#8C889A" stroke-width="1.5" stroke-linejoin="round"/>
</g>
<defs>
<clipPath id="clip0_3004_128">
<rect width="24" height="24" fill="white"/>
</clipPath>
</defs>
</svg>
