<svg width="12" height="12" viewBox="0 0 12 12" fill="none" xmlns="http://www.w3.org/2000/svg">
<path d="M6.804 5.497C7.425 5.209 8.028 4.918 8.595 4.632C9.162 4.342 9.616 4.128 9.951 3.994C10.287 3.863 10.556 3.793 10.76 3.793C11.096 3.793 11.386 3.903 11.632 4.133C11.878 4.357 12 4.642 12 4.977C12 5.169 11.939 5.371 11.819 5.577C11.7 5.784 11.571 5.917 11.437 5.975C10.195 6.463 8.826 6.822 7.335 7.044C7.606 7.29 7.938 7.625 8.333 8.037C8.728 8.455 8.936 8.675 8.952 8.703C9.098 8.904 9.299 9.155 9.559 9.453C9.819 9.753 9.999 9.985 10.1 10.154C10.201 10.325 10.252 10.526 10.252 10.767C10.252 11.075 10.137 11.346 9.905 11.576C9.676 11.808 9.375 11.924 9.009 11.924C8.643 11.924 8.234 11.638 7.774 11.072C7.317 10.506 6.726 9.483 6.004 8.01C5.273 9.336 4.78 10.215 4.532 10.639C4.281 11.059 4.04 11.38 3.81 11.598C3.578 11.814 3.315 11.924 3.015 11.924C2.659 11.924 2.362 11.802 2.124 11.556C1.893 11.31 1.772 11.045 1.772 10.768C1.772 10.508 1.819 10.311 1.916 10.178C2.802 8.975 3.725 7.925 4.69 7.044C3.881 6.917 3.16 6.776 2.525 6.624C1.889 6.467 1.213 6.244 0.502 5.944C0.385 5.885 0.273 5.752 0.162 5.546C0.0539999 5.342 0 5.15 0 4.977C0 4.642 0.122 4.358 0.368 4.133C0.614 3.904 0.895 3.793 1.214 3.793C1.446 3.793 1.733 3.863 2.081 4.002C2.426 4.143 2.866 4.344 3.4 4.608C3.935 4.873 4.545 5.169 5.228 5.497C5.103 4.89 4.999 4.193 4.917 3.411C4.835 2.626 4.795 2.089 4.795 1.799C4.795 1.443 4.908 1.14 5.133 0.882C5.362 0.627 5.65 0.5 6.007 0.5C6.357 0.5 6.64 0.627 6.867 0.882C7.095 1.14 7.207 1.478 7.207 1.902C7.207 2.017 7.188 2.245 7.155 2.589C7.125 2.932 7.073 3.344 7.012 3.829C6.949 4.315 6.879 4.873 6.804 5.497Z" fill="#FFFEFE"/>
<path d="M6.804 5.497C7.425 5.209 8.028 4.918 8.595 4.632C9.162 4.342 9.616 4.128 9.951 3.994C10.287 3.863 10.556 3.793 10.76 3.793C11.096 3.793 11.386 3.903 11.632 4.133C11.878 4.357 12 4.642 12 4.977C12 5.169 11.939 5.371 11.819 5.577C11.7 5.784 11.571 5.917 11.437 5.975C10.195 6.463 8.826 6.822 7.335 7.044C7.606 7.29 7.938 7.625 8.333 8.037C8.728 8.455 8.936 8.675 8.952 8.703C9.098 8.904 9.299 9.155 9.559 9.453C9.819 9.753 9.999 9.985 10.1 10.154C10.201 10.325 10.252 10.526 10.252 10.767C10.252 11.075 10.137 11.346 9.905 11.576C9.676 11.808 9.375 11.924 9.009 11.924C8.643 11.924 8.234 11.638 7.774 11.072C7.317 10.506 6.726 9.483 6.004 8.01C5.273 9.336 4.78 10.215 4.532 10.639C4.281 11.059 4.04 11.38 3.81 11.598C3.578 11.814 3.315 11.924 3.015 11.924C2.659 11.924 2.362 11.802 2.124 11.556C1.893 11.31 1.772 11.045 1.772 10.768C1.772 10.508 1.819 10.311 1.916 10.178C2.802 8.975 3.725 7.925 4.69 7.044C3.881 6.917 3.16 6.776 2.525 6.624C1.889 6.467 1.213 6.244 0.502 5.944C0.385 5.885 0.273 5.752 0.162 5.546C0.0539999 5.342 0 5.15 0 4.977C0 4.642 0.122 4.358 0.368 4.133C0.614 3.904 0.895 3.793 1.214 3.793C1.446 3.793 1.733 3.863 2.081 4.002C2.426 4.143 2.866 4.344 3.4 4.608C3.935 4.873 4.545 5.169 5.228 5.497C5.103 4.89 4.999 4.193 4.917 3.411C4.835 2.626 4.795 2.089 4.795 1.799C4.795 1.443 4.908 1.14 5.133 0.882C5.362 0.627 5.65 0.5 6.007 0.5C6.357 0.5 6.64 0.627 6.867 0.882C7.095 1.14 7.207 1.478 7.207 1.902C7.207 2.017 7.188 2.245 7.155 2.589C7.125 2.932 7.073 3.344 7.012 3.829C6.949 4.315 6.879 4.873 6.804 5.497Z" fill="url(#paint0_linear_3389_952)"/>
<defs>
<linearGradient id="paint0_linear_3389_952" x1="-1.89" y1="2.18" x2="12.1333" y2="2.71465" gradientUnits="userSpaceOnUse">
<stop stop-color="#59ECC5"/>
<stop offset="0.995" stop-color="#FFCE42"/>
</linearGradient>
</defs>
</svg>
