<svg width="61" height="77" viewBox="0 0 61 77" fill="none" xmlns="http://www.w3.org/2000/svg">
<path d="M36.2427 0.163386C39.7134 -0.57332 43.6294 1.23079 45.0046 4.57708C46.0393 6.61366 45.3058 9.0759 46.4584 11.0666C47.7844 13.6042 50.5348 15.3887 53.4456 15.2511C57.1619 15.2479 60.5278 18.378 60.8749 22.0649C61.3104 25.6207 58.835 29.2191 55.4003 30.1686C53.331 30.7285 51.003 30.4633 49.2022 29.2715C47.1099 27.9487 45.7315 25.5618 45.7086 23.0766C45.7413 20.0184 43.8848 16.9996 41.0198 15.8471C39.1993 14.8975 37.0252 15.5917 35.1884 14.7174C32.6869 13.6697 30.6961 11.2107 30.575 8.45052C30.5062 7.01639 30.408 5.45458 31.2298 4.19399C32.2481 2.21962 34.1374 0.801865 36.246 0.16666L36.2427 0.163386Z" fill="#5B85F2"/>
<path d="M20.3069 15.6343C24.1181 14.2297 28.856 16.4954 30.0249 20.4213C31.5572 24.3831 28.9018 29.2225 24.7992 30.1982C23.1719 30.5387 21.4365 30.3521 19.8976 31.0626C16.5546 32.3723 14.5147 36.3047 15.4184 39.7819C15.9358 42.1754 17.7104 44.2185 19.9631 45.1419C21.6755 45.8262 23.591 45.5184 25.323 46.1405C28.4598 47.149 30.5913 50.4101 30.4603 53.668C30.3032 55.3641 29.6876 57.0634 28.5318 58.3371C26.5705 60.6062 23.1784 61.5328 20.356 60.4883C18.0084 59.709 16.1191 57.6921 15.5036 55.2953C15.0746 53.7957 15.2514 52.1881 14.8094 50.6917C14.0596 48.8385 12.6124 47.2669 10.8181 46.3828C8.62108 45.3121 5.94929 46.0554 3.84722 44.7064C0.343774 42.8008 -1.13291 37.8894 0.959333 34.4416C2.04638 32.1431 4.49225 30.7188 6.97413 30.506C8.28711 30.3553 9.68849 30.3914 10.8738 29.7267C12.9431 28.7084 14.6523 26.7635 14.9895 24.4388C15.2416 22.877 15.2056 21.2366 15.8768 19.7697C16.679 17.8313 18.3849 16.4038 20.3003 15.6343H20.3069Z" fill="#59ECC5"/>
<path d="M36.6356 30.5907C40.2995 29.8212 44.281 32.2082 45.3222 35.8131C46.3896 38.8778 45.0701 42.4926 42.4245 44.3196C40.8136 45.4984 38.7148 45.8618 36.7666 45.5606C33.8427 45.1447 31.3183 42.7775 30.6765 39.9027C30.2607 37.8759 30.4964 35.6396 31.6948 33.9108C32.8015 32.1918 34.6383 31.0032 36.6324 30.5907H36.6356Z" fill="#FFCE42"/>
<path d="M51.6087 45.882C55.3872 44.9587 59.4866 47.5879 60.4328 51.3206C61.5068 54.9354 59.3785 59.1166 55.8358 60.3968C54.1266 61.1204 52.1981 60.7995 50.4726 61.4413C47.7353 62.5349 45.6987 65.3049 45.7052 68.291C45.6922 70.4357 44.867 72.6065 43.2823 74.0832C41.1704 76.051 37.8962 76.7746 35.2178 75.5893C32.4314 74.5023 30.4047 71.6373 30.5094 68.6185C30.3523 65.7699 32.0745 63.0195 34.6055 61.7556C36.2852 60.793 38.3022 61.1532 40.103 60.6227C42.4899 60.017 44.4578 58.1114 45.2469 55.7899C45.8657 54.2216 45.5284 52.4764 46.0359 50.8851C46.8905 48.4229 49.0352 46.4125 51.6087 45.8853V45.882Z" fill="#FF8A57"/>
</svg>
