<svg width="16" height="16" viewBox="0 0 16 16" fill="none" xmlns="http://www.w3.org/2000/svg">
<path d="M1.28442 8.82211C1.28442 9.68928 1.45522 10.5479 1.78707 11.3491C2.11892 12.1503 2.60532 12.8782 3.2185 13.4914C3.83168 14.1046 4.55963 14.591 5.36079 14.9228C6.16194 15.2547 7.02062 15.4255 7.88778 15.4255C8.75495 15.4255 9.61362 15.2547 10.4148 14.9228C11.2159 14.591 11.9439 14.1046 12.5571 13.4914C13.1702 12.8782 13.6566 12.1503 13.9885 11.3491C14.3203 10.5479 14.4911 9.68928 14.4911 8.82211C14.4911 7.95494 14.3203 7.09627 13.9885 6.29511C13.6566 5.49396 13.1702 4.76601 12.5571 4.15283C11.9439 3.53965 11.2159 3.05325 10.4148 2.7214C9.61362 2.38955 8.75495 2.21875 7.88778 2.21875C7.02062 2.21875 6.16194 2.38955 5.36079 2.7214C4.55963 3.05325 3.83168 3.53965 3.2185 4.15283C2.60532 4.76601 2.11892 5.49396 1.78707 6.29511C1.45522 7.09627 1.28442 7.95494 1.28442 8.82211Z" fill="#ECF3FE"/>
<path d="M7.88787 15.5624C4.17147 15.5624 1.14819 12.5391 1.14819 8.82269C1.14819 5.10629 4.17147 2.08301 7.88787 2.08301C11.6043 2.08301 14.6276 5.10629 14.6276 8.82269C14.6276 12.5391 11.6043 15.5624 7.88787 15.5624ZM7.88787 2.35565C4.32203 2.35565 1.42091 5.25677 1.42091 8.82261C1.42091 12.3884 4.32203 15.2896 7.88787 15.2896C11.4537 15.2896 14.3548 12.3884 14.3548 8.82261C14.3548 5.25677 11.4537 2.35565 7.88787 2.35565Z" fill="#6C0000"/>
<path d="M7.88781 15.229C10.0404 15.229 11.9465 14.1777 13.1238 12.5616L10.0684 5.29492H5.70717L2.65173 12.5616C3.82909 14.1777 5.73525 15.229 7.88781 15.229Z" fill="#FFEC43"/>
<path d="M7.88785 15.3652C5.78257 15.3652 3.78385 14.3471 2.54137 12.6417L2.49609 12.5793L2.52609 12.5084L5.61665 5.1582H10.1591L13.2796 12.5793L13.2343 12.6417C11.9919 14.347 9.99313 15.3652 7.88785 15.3652ZM2.80769 12.5427C4.00169 14.1407 5.89489 15.0924 7.88785 15.0924C9.88081 15.0924 11.774 14.1408 12.968 12.5427L9.97785 5.431H5.79785L2.80769 12.5427Z" fill="#6B0204"/>
<path d="M7.88787 15.2292C9.42915 15.2292 10.8439 14.6898 11.9558 13.7906L9.62179 5.37695H6.15395L3.81995 13.7906C4.93179 14.6898 6.34659 15.2292 7.88787 15.2292Z" fill="#FFEC43"/>
<path d="M7.88783 15.3653C6.38063 15.3653 4.90543 14.8436 3.73407 13.8963L3.66431 13.8399L6.05015 5.24023H9.72551L12.1113 13.8398L12.0416 13.8962C10.8705 14.8435 9.39527 15.3653 7.88783 15.3653ZM3.97551 13.7397C5.08711 14.6126 6.47279 15.0925 7.88783 15.0925C9.30303 15.0925 10.6888 14.6125 11.8001 13.7397L9.51807 5.51303H6.25759L3.97551 13.7397Z" fill="#6B0204"/>
<path d="M7.93164 5.37695H6.75684L5.17212 14.5843C5.17772 14.603 5.18356 14.6213 5.18916 14.6398C6.03557 15.0289 6.95624 15.23 7.8878 15.2293C8.81936 15.23 9.74003 15.0289 10.5864 14.6398C10.592 14.6213 10.5979 14.603 10.6035 14.5843L9.01876 5.37695H7.93164Z" fill="#FFEC43"/>
<path d="M7.88783 15.3653C6.92903 15.3653 6.00199 15.163 5.13239 14.7634L5.07687 14.7381L5.03223 14.5922L5.03759 14.5609L6.64183 5.24023H9.13383L10.7434 14.5921L10.7032 14.7229L10.6432 14.7633C9.77367 15.1629 8.84663 15.3653 7.88783 15.3653ZM5.31703 14.5474C6.13015 14.909 6.99455 15.0925 7.88783 15.0925C8.78111 15.0925 9.64551 14.909 10.4586 14.5474L8.90375 5.51303H6.87191L5.31703 14.5474Z" fill="#6B0204"/>
<path d="M7.88782 15.4257C9.47366 15.4257 10.9285 14.8662 12.067 13.9344C11.1378 12.6283 9.61294 11.7754 7.88782 11.7754C6.16278 11.7754 4.6379 12.6283 3.70862 13.9344C4.84702 14.8662 6.30198 15.4257 7.88782 15.4257Z" fill="#FFC700"/>
<path d="M7.88788 15.5391C6.3414 15.5391 4.83172 15.0003 3.63684 14.0219L3.55444 13.9546L3.6162 13.8679C4.59924 12.486 6.19612 11.6611 7.88788 11.6611C9.57964 11.6611 11.1765 12.486 12.1596 13.8679L12.2213 13.9546L12.1389 14.0219C10.944 15.0003 9.43436 15.5391 7.88788 15.5391ZM3.86452 13.9133C5.00524 14.8159 6.4298 15.3116 7.88788 15.3116C9.34596 15.3116 10.7705 14.8159 11.9112 13.9133C10.9664 12.6435 9.47052 11.8886 7.88788 11.8886C6.30524 11.8886 4.80932 12.6435 3.86452 13.9133Z" fill="#6C0000"/>
<path d="M11.2404 3.90346C11.2157 2.0725 9.72464 0.595703 7.88784 0.595703C6.05104 0.595703 4.56 2.07258 4.53528 3.90346H11.2404Z" fill="#00DFD5"/>
<path d="M11.3789 4.0397H4.39685L4.39885 3.90154C4.42461 2.00322 5.98981 0.458984 7.88789 0.458984C9.78621 0.458984 11.3513 2.00322 11.3769 3.90154L11.3789 4.0397ZM4.67653 3.7669H11.0993C11.0037 2.0809 9.59141 0.731624 7.88789 0.731624C6.18461 0.731704 4.77205 2.08098 4.67653 3.7669Z" fill="#6C0000"/>
<path d="M4.53406 3.88574H11.2415V4.43702H4.53406V3.88574Z" fill="#FFBD00"/>
<path d="M11.3779 4.574H4.39771V3.75H11.3779V4.574H11.3779ZM4.67042 4.30128H11.1051V4.0228H4.67042V4.30128Z" fill="#6C0000"/>
<path d="M11.6091 4.43555H4.16657C3.74793 4.43555 3.40857 4.77491 3.40857 5.19355C3.40857 5.61219 3.74793 5.95155 4.16657 5.95155H4.84777C4.84769 5.95403 4.84705 5.95627 4.84705 5.95875V6.21715C4.84705 6.29482 4.87791 6.36932 4.93283 6.42424C4.98776 6.47917 5.06225 6.51003 5.13993 6.51003C5.21761 6.51003 5.2921 6.47917 5.34703 6.42424C5.40195 6.36932 5.43281 6.29482 5.43281 6.21715V5.95875C5.43281 5.95627 5.43217 5.95403 5.43209 5.95155H10.3435C10.3434 5.95403 10.3428 5.95627 10.3428 5.95875V6.21715C10.3428 6.29482 10.3737 6.36932 10.4286 6.42424C10.4835 6.47917 10.558 6.51003 10.6357 6.51003C10.7134 6.51003 10.7879 6.47917 10.8428 6.42424C10.8977 6.36932 10.9286 6.29482 10.9286 6.21715V5.95875C10.9286 5.95627 10.9279 5.95403 10.9278 5.95155H11.609C12.0277 5.95155 12.367 5.61219 12.367 5.19355C12.367 4.77491 12.0278 4.43555 11.6091 4.43555Z" fill="#5EB1BE"/>
<path d="M10.6357 6.647C10.5219 6.64694 10.4128 6.60171 10.3323 6.52125C10.2518 6.44079 10.2066 6.33167 10.2065 6.21788V6.0886H5.56861L5.56925 6.21788C5.56913 6.3317 5.52384 6.44081 5.44334 6.52126C5.36284 6.60172 5.25371 6.64694 5.13989 6.647C5.02608 6.64694 4.91694 6.60172 4.83644 6.52126C4.75594 6.44081 4.71066 6.3317 4.71053 6.21788V6.0886H4.16637C3.67309 6.0886 3.27197 5.68748 3.27197 5.1942C3.27197 4.70092 3.67309 4.2998 4.16637 4.2998H11.609C12.1023 4.2998 12.5034 4.70092 12.5034 5.1942C12.5034 5.68748 12.1023 6.0886 11.609 6.0886H11.0646L11.0649 6.21788C11.0648 6.33169 11.0195 6.44081 10.9391 6.52128C10.8586 6.60174 10.7495 6.64696 10.6357 6.647ZM5.28277 5.81052L5.43205 5.81588H10.48L10.4793 6.21788C10.4793 6.30404 10.5495 6.3742 10.6357 6.3742C10.7221 6.3742 10.7922 6.30404 10.7922 6.21788V5.823L10.9279 5.81588H11.6091C11.9518 5.81588 12.2308 5.53692 12.2308 5.1942C12.2308 4.85148 11.9518 4.57252 11.6091 4.57252H4.16645C3.82373 4.57252 3.54477 4.85148 3.54477 5.1942C3.54477 5.53692 3.82373 5.81588 4.16645 5.81588H4.98397L4.98333 6.21788C4.98333 6.25941 4.99983 6.29923 5.02919 6.32859C5.05855 6.35795 5.09837 6.37444 5.13989 6.37444C5.18142 6.37444 5.22124 6.35795 5.2506 6.32859C5.27996 6.29923 5.29645 6.25941 5.29645 6.21788V5.95932L5.28277 5.81052Z" fill="#6C0000"/>
<path d="M6.05737 5.21244C6.05737 5.29313 6.08943 5.37052 6.14648 5.42757C6.20354 5.48463 6.28092 5.51668 6.36161 5.51668C6.4423 5.51668 6.51969 5.48463 6.57674 5.42757C6.6338 5.37052 6.66585 5.29313 6.66585 5.21244C6.66585 5.13175 6.6338 5.05437 6.57674 4.99731C6.51969 4.94026 6.4423 4.9082 6.36161 4.9082C6.28092 4.9082 6.20354 4.94026 6.14648 4.99731C6.08943 5.05437 6.05737 5.13175 6.05737 5.21244Z" fill="white"/>
<path d="M6.36148 5.63092C6.25065 5.63082 6.14439 5.58674 6.06603 5.50838C5.98766 5.43001 5.94359 5.32375 5.94348 5.21292C5.94359 5.10209 5.98766 4.99584 6.06603 4.91747C6.14439 4.8391 6.25065 4.79503 6.36148 4.79492C6.47231 4.79503 6.57857 4.8391 6.65694 4.91747C6.7353 4.99584 6.77938 5.10209 6.77948 5.21292C6.77938 5.32375 6.7353 5.43001 6.65694 5.50838C6.57857 5.58674 6.47231 5.63082 6.36148 5.63092ZM6.36148 5.02236C6.31096 5.02243 6.26253 5.04252 6.22681 5.07825C6.19108 5.11397 6.17098 5.1624 6.17092 5.21292C6.17092 5.31796 6.25644 5.40348 6.36148 5.40348C6.46652 5.40348 6.55204 5.31796 6.55204 5.21292C6.55198 5.1624 6.53188 5.11397 6.49616 5.07825C6.46043 5.04252 6.412 5.02243 6.36148 5.02236Z" fill="#6C0000"/>
<path d="M7.58362 5.21244C7.58362 5.2524 7.59149 5.29196 7.60678 5.32887C7.62207 5.36578 7.64448 5.39932 7.67273 5.42757C7.70098 5.45582 7.73452 5.47823 7.77143 5.49352C7.80834 5.50881 7.8479 5.51668 7.88786 5.51668C7.92781 5.51668 7.96737 5.50881 8.00429 5.49352C8.0412 5.47823 8.07474 5.45582 8.10299 5.42757C8.13124 5.39932 8.15365 5.36578 8.16894 5.32887C8.18423 5.29196 8.1921 5.2524 8.1921 5.21244C8.1921 5.13175 8.16004 5.05437 8.10299 4.99731C8.04593 4.94026 7.96855 4.9082 7.88786 4.9082C7.80717 4.9082 7.72978 4.94026 7.67273 4.99731C7.61567 5.05437 7.58362 5.13175 7.58362 5.21244Z" fill="white"/>
<path d="M7.88785 5.63092C7.77702 5.63082 7.67076 5.58674 7.59239 5.50838C7.51403 5.43001 7.46995 5.32375 7.46985 5.21292C7.46995 5.10209 7.51403 4.99584 7.59239 4.91747C7.67076 4.8391 7.77702 4.79503 7.88785 4.79492C7.99868 4.79503 8.10493 4.8391 8.1833 4.91747C8.26167 4.99584 8.30574 5.10209 8.30585 5.21292C8.30574 5.32375 8.26167 5.43001 8.1833 5.50838C8.10493 5.58674 7.99868 5.63082 7.88785 5.63092ZM7.88785 5.02236C7.83733 5.02243 7.7889 5.04252 7.75317 5.07825C7.71745 5.11397 7.69735 5.1624 7.69729 5.21292C7.69729 5.31796 7.78281 5.40348 7.88785 5.40348C7.99289 5.40348 8.07841 5.31796 8.07841 5.21292C8.07834 5.1624 8.05825 5.11397 8.02252 5.07825C7.9868 5.04252 7.93837 5.02243 7.88785 5.02236Z" fill="#6C0000"/>
<path d="M9.10986 5.21244C9.10986 5.29313 9.14192 5.37052 9.19897 5.42757C9.25603 5.48463 9.33341 5.51668 9.4141 5.51668C9.49479 5.51668 9.57218 5.48463 9.62923 5.42757C9.68629 5.37052 9.71834 5.29313 9.71834 5.21244C9.71834 5.13175 9.68629 5.05437 9.62923 4.99731C9.57218 4.94026 9.49479 4.9082 9.4141 4.9082C9.33341 4.9082 9.25603 4.94026 9.19897 4.99731C9.14192 5.05437 9.10986 5.13175 9.10986 5.21244Z" fill="white"/>
<path d="M9.41422 5.63092C9.30339 5.63082 9.19713 5.58674 9.11876 5.50838C9.0404 5.43001 8.99632 5.32375 8.99622 5.21292C8.99632 5.10209 9.0404 4.99584 9.11876 4.91747C9.19713 4.8391 9.30339 4.79503 9.41422 4.79492C9.52504 4.79503 9.6313 4.8391 9.70967 4.91747C9.78804 4.99584 9.83211 5.10209 9.83222 5.21292C9.83211 5.32375 9.78804 5.43001 9.70967 5.50838C9.6313 5.58674 9.52504 5.63082 9.41422 5.63092ZM9.41422 5.02236C9.3637 5.02243 9.31526 5.04252 9.27954 5.07825C9.24382 5.11397 9.22372 5.1624 9.22366 5.21292C9.22372 5.26344 9.24382 5.31187 9.27954 5.3476C9.31526 5.38332 9.3637 5.40342 9.41422 5.40348C9.46474 5.40342 9.51317 5.38332 9.54889 5.3476C9.58462 5.31187 9.60471 5.26344 9.60478 5.21292C9.60471 5.1624 9.58462 5.11397 9.54889 5.07825C9.51317 5.04252 9.46474 5.02243 9.41422 5.02236Z" fill="#6C0000"/>
</svg>
