<svg width="16" height="16" viewBox="0 0 16 16" fill="none" xmlns="http://www.w3.org/2000/svg">
<g clip-path="url(#clip0_3031_4579)">
<path d="M13.5322 6.42219C13.4915 3.40091 11.031 0.963867 7.99993 0.963867C4.96897 0.963867 2.50849 3.40091 2.46777 6.42219H13.5322Z" fill="#00DFD5"/>
<path d="M13.6894 6.57747H2.3103L2.31246 6.42003C2.3543 3.32587 4.90566 0.808594 7.99998 0.808594C11.0943 0.808594 13.6457 3.32587 13.6874 6.42003L13.6894 6.57747ZM2.62742 6.26691H13.3724C13.2505 3.41419 10.8727 1.11915 7.99998 1.11915C5.12726 1.11915 2.7495 3.41419 2.62742 6.26691Z" fill="#6C0000"/>
<path d="M2.46582 6.39355H13.5341V7.30331H2.46582V6.39355Z" fill="#FFBD00"/>
<path d="M13.6894 7.45852H2.31055V6.23828H13.6894V7.45852ZM2.62111 7.14796H13.3788V6.54884H2.62111V7.14796Z" fill="#6C0000"/>
<path d="M14.1406 7.30176H1.8594C1.16852 7.30176 0.608521 7.86176 0.608521 8.55264C0.608521 9.24352 1.16852 9.80352 1.8594 9.80352H2.98356C2.98348 9.80752 2.98236 9.81128 2.98236 9.81536V10.2418C2.98236 10.3699 3.03328 10.4929 3.12391 10.5835C3.21454 10.6741 3.33747 10.725 3.46564 10.725C3.59381 10.725 3.71674 10.6741 3.80737 10.5835C3.898 10.4929 3.94892 10.3699 3.94892 10.2418V9.81536C3.94892 9.81128 3.9478 9.80752 3.94772 9.80352H12.0523C12.0522 9.80752 12.0511 9.81128 12.0511 9.81536V10.2418C12.0511 10.3699 12.102 10.4929 12.1926 10.5835C12.2833 10.6741 12.4062 10.725 12.5344 10.725C12.6625 10.725 12.7855 10.6741 12.8761 10.5835C12.9667 10.4929 13.0176 10.3699 13.0176 10.2418V9.81536C13.0176 9.81128 13.0165 9.80752 13.0164 9.80352H14.1406C14.8315 9.80352 15.3915 9.24352 15.3915 8.55264C15.3915 7.86176 14.8315 7.30176 14.1406 7.30176Z" fill="#5EB1BE"/>
<path d="M12.5344 10.8804C12.1822 10.8804 11.8958 10.594 11.8958 10.2418V9.9588H4.10341L4.10413 10.2418C4.10413 10.594 3.81773 10.8804 3.46557 10.8804C3.11341 10.8804 2.82701 10.594 2.82701 10.2418V9.9588H1.85941C1.08413 9.9588 0.453247 9.32792 0.453247 8.55264C0.453247 7.77736 1.08413 7.14648 1.85941 7.14648H14.1407C14.916 7.14648 15.5468 7.77736 15.5468 8.55264C15.5468 9.32792 14.916 9.9588 14.1407 9.9588H13.1722L13.1729 10.2418C13.1729 10.594 12.8865 10.8804 12.5344 10.8804ZM3.94773 9.64824H12.2125L12.2064 10.2418C12.2064 10.4228 12.3534 10.5698 12.5344 10.5698C12.7153 10.5698 12.8624 10.4228 12.8624 10.2418V9.66016L13.0165 9.64832H14.1407C14.7448 9.64832 15.2363 9.1568 15.2363 8.55272C15.2363 7.94864 14.7448 7.45712 14.1407 7.45712H1.85941C1.25533 7.45712 0.763807 7.94864 0.763807 8.55272C0.763807 9.1568 1.25533 9.64832 1.85941 9.64832H3.14373L3.13757 10.2419C3.13757 10.4229 3.28461 10.5699 3.46557 10.5699C3.64653 10.5699 3.79357 10.4229 3.79357 10.2419V9.66024L3.94773 9.64824Z" fill="#6C0000"/>
<path d="M4.97937 8.58313C4.97937 8.71629 5.03227 8.844 5.12643 8.93816C5.22058 9.03232 5.34829 9.08521 5.48145 9.08521C5.61461 9.08521 5.74232 9.03232 5.83647 8.93816C5.93063 8.844 5.98353 8.71629 5.98353 8.58313C5.98353 8.44997 5.93063 8.32227 5.83647 8.22811C5.74232 8.13395 5.61461 8.08105 5.48145 8.08105C5.34829 8.08105 5.22058 8.13395 5.12643 8.22811C5.03227 8.32227 4.97937 8.44997 4.97937 8.58313Z" fill="white"/>
<path d="M5.4815 9.21421C5.13326 9.21421 4.84998 8.93093 4.84998 8.58269C4.84998 8.23445 5.13326 7.95117 5.4815 7.95117C5.82974 7.95117 6.11302 8.23445 6.11302 8.58269C6.11302 8.93093 5.82974 9.21421 5.4815 9.21421ZM5.4815 8.20997C5.2759 8.20997 5.10878 8.37717 5.10878 8.58269C5.10878 8.78821 5.27598 8.95541 5.4815 8.95541C5.68702 8.95541 5.85422 8.78821 5.85422 8.58269C5.85422 8.37717 5.6871 8.20997 5.4815 8.20997Z" fill="#6C0000"/>
<path d="M7.4978 8.58313C7.4978 8.71629 7.5507 8.844 7.64486 8.93816C7.73902 9.03232 7.86672 9.08521 7.99988 9.08521C8.13304 9.08521 8.26075 9.03232 8.35491 8.93816C8.44907 8.844 8.50196 8.71629 8.50196 8.58313C8.50196 8.44997 8.44907 8.32227 8.35491 8.22811C8.26075 8.13395 8.13304 8.08105 7.99988 8.08105C7.86672 8.08105 7.73902 8.13395 7.64486 8.22811C7.5507 8.32227 7.4978 8.44997 7.4978 8.58313Z" fill="white"/>
<path d="M8.00005 9.21421C7.65181 9.21421 7.36853 8.93093 7.36853 8.58269C7.36853 8.23445 7.65181 7.95117 8.00005 7.95117C8.34813 7.95117 8.63141 8.23445 8.63141 8.58269C8.63141 8.93093 8.34813 9.21421 8.00005 9.21421ZM8.00005 8.20997C7.79445 8.20997 7.62733 8.37717 7.62733 8.58269C7.62733 8.78821 7.79453 8.95541 8.00005 8.95541C8.20549 8.95541 8.37269 8.78821 8.37269 8.58269C8.37269 8.37717 8.20549 8.20997 8.00005 8.20997Z" fill="#6C0000"/>
<path d="M10.0164 8.58313C10.0164 8.71629 10.0693 8.844 10.1634 8.93816C10.2576 9.03232 10.3853 9.08521 10.5184 9.08521C10.6516 9.08521 10.7793 9.03232 10.8735 8.93816C10.9676 8.844 11.0205 8.71629 11.0205 8.58313C11.0205 8.44997 10.9676 8.32227 10.8735 8.22811C10.7793 8.13395 10.6516 8.08105 10.5184 8.08105C10.3853 8.08105 10.2576 8.13395 10.1634 8.22811C10.0693 8.32227 10.0164 8.44997 10.0164 8.58313Z" fill="white"/>
<path d="M10.5184 9.21421C10.1701 9.21421 9.88684 8.93093 9.88684 8.58269C9.88684 8.23445 10.1701 7.95117 10.5184 7.95117C10.8666 7.95117 11.1499 8.23445 11.1499 8.58269C11.1499 8.93093 10.8666 9.21421 10.5184 9.21421ZM10.5184 8.20997C10.3128 8.20997 10.1456 8.37717 10.1456 8.58269C10.1456 8.78821 10.3128 8.95541 10.5184 8.95541C10.724 8.95541 10.8911 8.78821 10.8911 8.58269C10.8911 8.37717 10.724 8.20997 10.5184 8.20997Z" fill="#6C0000"/>
<path d="M5.0053 15.0127H13.7949C13.7949 15.0127 14.0923 13.8033 13.5101 13.2825C12.9279 12.7616 12.1927 12.8229 12.1927 12.8229C12.1927 12.8229 11.9375 11.9526 11.3195 11.7506C10.5228 11.4902 9.87946 12.011 9.87946 12.011C9.87946 12.011 9.28202 11.1071 8.4241 11.1531C7.44314 11.2056 7.01474 11.965 7.01474 11.965C7.01474 11.965 6.32538 11.2756 5.32962 11.6586C4.33386 12.0415 4.3185 13.0679 4.3185 13.0679C4.3185 13.0679 3.35818 12.8577 2.81722 13.4663C2.32698 14.0178 2.4649 14.9982 2.4649 14.9982L5.0053 15.0127Z" fill="#BED5E9"/>
<path d="M13.9168 15.1678H5.00542L2.32998 15.1526L2.31126 15.0196C2.30518 14.9766 2.16934 13.9613 2.70134 13.363C3.15206 12.8562 3.85414 12.856 4.18054 12.8906C4.23238 12.5559 4.44022 11.8342 5.27414 11.5135C5.49182 11.4298 5.7131 11.3873 5.93182 11.3873C6.42446 11.3873 6.7943 11.5992 6.98366 11.7379C7.17382 11.4945 7.6311 11.04 8.41598 10.9979C9.15966 10.9595 9.70438 11.5352 9.91526 11.7987C10.0936 11.6895 10.4369 11.5222 10.8641 11.5222C11.0349 11.5222 11.2044 11.5494 11.3681 11.6028C11.92 11.7834 12.2059 12.4064 12.3032 12.6658C12.5609 12.671 13.1323 12.7358 13.6139 13.1666C14.2581 13.743 13.9591 14.9966 13.946 15.0496L13.9168 15.1678ZM2.60702 14.8436L5.0063 14.8573H13.668C13.7208 14.5567 13.8139 13.7623 13.4068 13.3981C12.9807 13.017 12.4676 12.9758 12.2667 12.9758C12.2301 12.9758 12.2083 12.9774 12.2053 12.9776L12.0801 12.9873L12.0439 12.8666C12.0417 12.8586 11.8032 12.0718 11.2714 11.8979C11.1399 11.8548 11.0024 11.8327 10.8641 11.8327C10.3568 11.8327 9.98062 12.1289 9.97686 12.1318L9.84454 12.2377L9.75014 12.0966C9.7447 12.0884 9.18878 11.269 8.43254 11.308C7.55326 11.3551 7.1659 12.0137 7.14982 12.0416L7.04886 12.2178L6.9051 12.0747C6.90166 12.0713 6.51622 11.6979 5.93166 11.6979C5.75126 11.6979 5.56742 11.7334 5.38542 11.8034C4.49782 12.1448 4.4739 13.0611 4.47382 13.0702L4.47094 13.2596L4.28558 13.2197C4.2823 13.2188 3.40478 13.0394 2.93326 13.5693C2.59654 13.9482 2.5911 14.5722 2.60702 14.8436Z" fill="#6C0000"/>
</g>
<defs>
<clipPath id="clip0_3031_4579">
<rect width="16" height="16" fill="white"/>
</clipPath>
</defs>
</svg>
