<svg width="17" height="16" viewBox="0 0 17 16" fill="none" xmlns="http://www.w3.org/2000/svg">
<path d="M1.5 8C1.5 8.91925 1.68106 9.8295 2.03284 10.6788C2.38463 11.5281 2.90024 12.2997 3.55025 12.9497C4.20026 13.5998 4.97194 14.1154 5.82122 14.4672C6.6705 14.8189 7.58075 15 8.5 15C9.41925 15 10.3295 14.8189 11.1788 14.4672C12.0281 14.1154 12.7997 13.5998 13.4497 12.9497C14.0998 12.2997 14.6154 11.5281 14.9672 10.6788C15.3189 9.8295 15.5 8.91925 15.5 8C15.5 6.14348 14.7625 4.36301 13.4497 3.05025C12.137 1.7375 10.3565 1 8.5 1C6.64348 1 4.86301 1.7375 3.55025 3.05025C2.2375 4.36301 1.5 6.14348 1.5 8Z" fill="#FBB040"/>
<path d="M2.42698 8.12975C2.42693 8.9273 2.58398 9.71705 2.88915 10.4539C3.19433 11.1908 3.64166 11.8603 4.2056 12.4243C4.76953 12.9882 5.43903 13.4356 6.17587 13.7408C6.91271 14.046 7.70245 14.2031 8.5 14.2031C9.29755 14.2031 10.0873 14.046 10.8241 13.7408C11.561 13.4356 12.2305 12.9882 12.7944 12.4243C13.3583 11.8603 13.8057 11.1908 14.1108 10.4539C14.416 9.71705 14.5731 8.9273 14.573 8.12975C14.5731 7.33219 14.416 6.54244 14.1108 5.80559C13.8057 5.06873 13.3583 4.39921 12.7944 3.83523C12.2305 3.27126 11.561 2.8239 10.8241 2.51868C10.0873 2.21345 9.29755 2.05636 8.5 2.05636C7.70245 2.05636 6.91271 2.21345 6.17587 2.51868C5.43903 2.8239 4.76953 3.27126 4.2056 3.83523C3.64166 4.39921 3.19433 5.06873 2.88915 5.80559C2.58398 6.54244 2.42693 7.33219 2.42698 8.12975Z" fill="#F7941D"/>
<path d="M3.318 8.12975C3.318 9.5041 3.86396 10.8222 4.83577 11.794C5.80759 12.7658 7.12565 13.3117 8.5 13.3117C9.87435 13.3117 11.1924 12.7658 12.1642 11.794C13.136 10.8222 13.682 9.5041 13.682 8.12975C13.682 7.44923 13.548 6.77539 13.2875 6.14668C13.0271 5.51797 12.6454 4.94671 12.1642 4.46552C11.683 3.98432 11.1118 3.60262 10.4831 3.3422C9.85436 3.08178 9.18051 2.94774 8.5 2.94774C7.81949 2.94774 7.14564 3.08178 6.51693 3.3422C5.88822 3.60262 5.31697 3.98432 4.83577 4.46552C4.35458 4.94671 3.97288 5.51797 3.71246 6.14668C3.45204 6.77539 3.318 7.44923 3.318 8.12975Z" fill="#F15A29"/>
<path d="M4.28874 8C4.28871 8.55305 4.3976 9.1007 4.60922 9.61167C4.82084 10.1226 5.13103 10.5869 5.52209 10.978C5.91314 11.3691 6.3774 11.6793 6.88835 11.891C7.3993 12.1026 7.94694 12.2116 8.5 12.2116C9.05305 12.2116 9.60069 12.1026 10.1116 11.891C10.6226 11.6793 11.0869 11.3691 11.4779 10.978C11.869 10.5869 12.1792 10.1226 12.3908 9.61167C12.6024 9.1007 12.7113 8.55305 12.7113 8C12.7113 7.44694 12.6024 6.8993 12.3908 6.38833C12.1792 5.87736 11.869 5.41308 11.4779 5.022C11.0869 4.63091 10.6226 4.32069 10.1116 4.10903C9.60069 3.89738 9.05305 3.78844 8.5 3.78844C7.94694 3.78844 7.3993 3.89738 6.88835 4.10903C6.3774 4.32069 5.91314 4.63091 5.52209 5.022C5.13103 5.41308 4.82084 5.87736 4.60922 6.38833C4.3976 6.8993 4.28871 7.44694 4.28874 8Z" fill="#EF4136"/>
<path d="M5.28919 8C5.28919 8.82295 5.61611 9.6122 6.19802 10.1941C6.77994 10.776 7.56919 11.1029 8.39214 11.1029C9.21509 11.1029 10.0043 10.776 10.5863 10.1941C11.1682 9.6122 11.4951 8.82295 11.4951 8C11.4951 7.17705 11.1682 6.3878 10.5863 5.80588C10.0043 5.22397 9.21509 4.89705 8.39214 4.89705C7.56919 4.89705 6.77994 5.22397 6.19802 5.80588C5.61611 6.3878 5.28919 7.17705 5.28919 8Z" fill="#BE1E2D"/>
</svg>
