<svg width="16" height="16" viewBox="0 0 16 16" fill="none" xmlns="http://www.w3.org/2000/svg">
<path d="M1.21411 8.51436C1.21411 10.3141 1.92905 12.0401 3.20164 13.3127C4.47423 14.5853 6.20023 15.3002 7.99995 15.3002C9.79967 15.3002 11.5257 14.5853 12.7983 13.3127C14.0709 12.0401 14.7858 10.3141 14.7858 8.51436C14.7858 6.71464 14.0709 4.98863 12.7983 3.71604C11.5257 2.44345 9.79967 1.72852 7.99995 1.72852C6.20023 1.72852 4.47423 2.44345 3.20164 3.71604C1.92905 4.98863 1.21411 6.71464 1.21411 8.51436Z" fill="#BED5E9"/>
<path d="M7.99998 15.4436C4.17974 15.4436 1.07166 12.3355 1.07166 8.51523C1.07166 4.69499 4.17974 1.58691 7.99998 1.58691C11.8202 1.58691 14.9283 4.69499 14.9283 8.51523C14.9283 12.3355 11.8202 15.4436 7.99998 15.4436ZM7.99998 1.87179C4.33678 1.87179 1.35654 4.85203 1.35654 8.51523C1.35654 12.1784 4.33678 15.1587 7.99998 15.1587C11.6632 15.1587 14.6434 12.1784 14.6434 8.51523C14.6434 4.85203 11.6632 1.87179 7.99998 1.87179Z" fill="#6C0000"/>
<path d="M2.59314 8.5152C2.59314 9.22523 2.73299 9.92831 3.00471 10.5843C3.27643 11.2403 3.67469 11.8363 4.17675 12.3384C4.67882 12.8405 5.27486 13.2387 5.93085 13.5104C6.58683 13.7821 7.28991 13.922 7.99994 13.922C8.70997 13.922 9.41305 13.7821 10.069 13.5104C10.725 13.2387 11.3211 12.8405 11.8231 12.3384C12.3252 11.8363 12.7235 11.2403 12.9952 10.5843C13.2669 9.92831 13.4067 9.22523 13.4067 8.5152C13.4067 7.80517 13.2669 7.10209 12.9952 6.44611C12.7235 5.79012 12.3252 5.19408 11.8231 4.69201C11.3211 4.18995 10.725 3.79168 10.069 3.51997C9.41305 3.24825 8.70997 3.1084 7.99994 3.1084C7.28991 3.1084 6.58683 3.24825 5.93085 3.51997C5.27486 3.79168 4.67882 4.18995 4.17675 4.69201C3.67469 5.19408 3.27643 5.79012 3.00471 6.44611C2.73299 7.10209 2.59314 7.80517 2.59314 8.5152Z" fill="#ECF3FE"/>
<path d="M8.00004 14.0644C4.9402 14.0644 2.45068 11.5749 2.45068 8.51502C2.45068 5.4551 4.9402 2.96582 8.00004 2.96582C11.0599 2.96582 13.5492 5.45518 13.5492 8.51502C13.5492 11.5749 11.0599 14.0644 8.00004 14.0644ZM8.00004 3.2507C5.09724 3.2507 2.73556 5.61222 2.73556 8.51502C2.73556 11.4178 5.09716 13.7795 8.00004 13.7795C10.9029 13.7795 13.2644 11.4179 13.2644 8.51502C13.2644 5.61214 10.9028 3.2507 8.00004 3.2507Z" fill="#6C0000"/>
<path d="M4.00134 8.51524C4.00134 9.57575 4.42263 10.5928 5.17252 11.3427C5.92241 12.0926 6.93948 12.5139 7.99998 12.5139C9.06049 12.5139 10.0776 12.0926 10.8274 11.3427C11.5773 10.5928 11.9986 9.57575 11.9986 8.51524C11.9986 7.45474 11.5773 6.43767 10.8274 5.68778C10.0776 4.93789 9.06049 4.5166 7.99998 4.5166C6.93948 4.5166 5.92241 4.93789 5.17252 5.68778C4.42263 6.43767 4.00134 7.45474 4.00134 8.51524Z" fill="white"/>
<path d="M8.00001 12.6562C5.71657 12.6562 3.85889 10.7984 3.85889 8.51506C3.85889 6.2317 5.71657 4.37402 8.00001 4.37402C10.2834 4.37402 12.141 6.23162 12.141 8.51506C12.141 10.7985 10.2834 12.6562 8.00001 12.6562ZM8.00001 4.6589C5.87361 4.6589 4.14377 6.38882 4.14377 8.51506C4.14377 10.6415 5.87369 12.3713 8.00001 12.3713C10.1262 12.3713 11.8562 10.6414 11.8562 8.51506C11.8562 6.38882 10.1262 4.6589 8.00001 4.6589Z" fill="#6C0000"/>
<path d="M2.81482 9.46346C2.81482 9.62141 2.84593 9.7778 2.90637 9.92372C2.96681 10.0696 3.05541 10.2022 3.16709 10.3139C3.27877 10.4256 3.41136 10.5142 3.55728 10.5746C3.7032 10.6351 3.8596 10.6662 4.01754 10.6662C4.17548 10.6662 4.33188 10.6351 4.4778 10.5746C4.62372 10.5142 4.75631 10.4256 4.86799 10.3139C4.97967 10.2022 5.06827 10.0696 5.12871 9.92372C5.18915 9.7778 5.22026 9.62141 5.22026 9.46346C5.22026 9.30552 5.18915 9.14912 5.12871 9.0032C5.06827 8.85728 4.97967 8.72469 4.86799 8.61301C4.75631 8.50133 4.62372 8.41274 4.4778 8.35229C4.33188 8.29185 4.17548 8.26074 4.01754 8.26074C3.8596 8.26074 3.7032 8.29185 3.55728 8.35229C3.41136 8.41274 3.27877 8.50133 3.16709 8.61301C3.05541 8.72469 2.96681 8.85728 2.90637 9.0032C2.84593 9.14912 2.81482 9.30552 2.81482 9.46346Z" fill="#00DFD5"/>
<path d="M4.01761 10.8084C3.27593 10.8084 2.67249 10.205 2.67249 9.46328C2.67249 8.7216 3.27593 8.11816 4.01761 8.11816C4.75921 8.11816 5.36265 8.7216 5.36265 9.46328C5.36265 10.205 4.75921 10.8084 4.01761 10.8084ZM4.01761 8.40296C3.43297 8.40296 2.95729 8.87856 2.95729 9.46328C2.95729 10.048 3.43289 10.5236 4.01761 10.5236C4.60217 10.5236 5.07777 10.048 5.07777 9.46328C5.07777 8.87856 4.60217 8.40296 4.01761 8.40296Z" fill="#6C0000"/>
<path d="M9.76172 1.88534C9.76172 2.20432 9.88843 2.51024 10.114 2.73579C10.3395 2.96134 10.6455 3.08806 10.9644 3.08806C11.2834 3.08806 11.5893 2.96134 11.8149 2.73579C12.0404 2.51024 12.1672 2.20432 12.1672 1.88534C12.1672 1.56636 12.0404 1.26044 11.8149 1.03489C11.5893 0.809332 11.2834 0.682617 10.9644 0.682617C10.6455 0.682617 10.3395 0.809332 10.114 1.03489C9.88843 1.26044 9.76172 1.56636 9.76172 1.88534Z" fill="#FFEC43"/>
<path d="M10.9644 3.2302C10.2227 3.2302 9.61926 2.62676 9.61926 1.88516C9.61926 1.14348 10.2227 0.540039 10.9644 0.540039C11.7061 0.540039 12.3095 1.14348 12.3095 1.88516C12.3095 2.62676 11.7061 3.2302 10.9644 3.2302ZM10.9644 0.824919C10.3797 0.824919 9.90406 1.30052 9.90406 1.88524C9.90406 2.4698 10.3797 2.9454 10.9644 2.9454C11.5491 2.9454 12.0247 2.4698 12.0247 1.88524C12.0246 1.30052 11.549 0.824919 10.9644 0.824919Z" fill="#6B0204"/>
<path d="M11.2533 14.0338C11.2533 14.3528 11.38 14.6587 11.6056 14.8842C11.8311 15.1098 12.137 15.2365 12.456 15.2365C12.775 15.2365 13.0809 15.1098 13.3065 14.8842C13.532 14.6587 13.6587 14.3528 13.6587 14.0338C13.6587 13.7148 13.532 13.4089 13.3065 13.1833C13.0809 12.9578 12.775 12.8311 12.456 12.8311C12.137 12.8311 11.8311 12.9578 11.6056 13.1833C11.38 13.4089 11.2533 13.7148 11.2533 14.0338Z" fill="#FFC700"/>
<path d="M12.456 15.3786C11.7143 15.3786 11.1108 14.7752 11.1108 14.0335C11.1108 13.2919 11.7143 12.6885 12.456 12.6885C13.1976 12.6885 13.8011 13.2919 13.8011 14.0335C13.8011 14.7752 13.1976 15.3786 12.456 15.3786ZM12.456 12.9734C11.8713 12.9734 11.3956 13.449 11.3956 14.0335C11.3956 14.6182 11.8712 15.0938 12.456 15.0938C13.0407 15.0938 13.5163 14.6182 13.5163 14.0335C13.5163 13.449 13.0407 12.9734 12.456 12.9734Z" fill="#6C0000"/>
<path d="M5.51404 8.51432C5.51404 9.17365 5.77596 9.80597 6.24217 10.2722C6.70839 10.7384 7.34071 11.0003 8.00004 11.0003C8.65937 11.0003 9.29169 10.7384 9.75791 10.2722C10.2241 9.80597 10.486 9.17365 10.486 8.51432C10.486 7.85499 10.2241 7.22267 9.75791 6.75645C9.29169 6.29024 8.65937 6.02832 8.00004 6.02832C7.34071 6.02832 6.70839 6.29024 6.24217 6.75645C5.77596 7.22267 5.51404 7.85499 5.51404 8.51432Z" fill="#ECF3FE"/>
<path d="M8.00002 11.1437C6.55066 11.1437 5.37146 9.96448 5.37146 8.51512C5.37146 7.06576 6.55066 5.88672 8.00002 5.88672C9.44938 5.88672 10.6284 7.06576 10.6284 8.51512C10.6284 9.96448 9.44938 11.1437 8.00002 11.1437ZM8.00002 6.1716C6.7077 6.1716 5.65634 7.22288 5.65634 8.51512C5.65634 9.80736 6.7077 10.8588 8.00002 10.8588C9.29234 10.8588 10.3435 9.80744 10.3435 8.51512C10.3435 7.2228 9.29234 6.1716 8.00002 6.1716Z" fill="#6C0000"/>
</svg>
