<svg width="16" height="16" viewBox="0 0 16 16" fill="none" xmlns="http://www.w3.org/2000/svg">
<path d="M2.68726 8.49322C2.68726 9.91852 3.25345 11.2854 4.26129 12.2933C5.26912 13.3011 6.63604 13.8673 8.06134 13.8673C9.48663 13.8673 10.8535 13.3011 11.8614 12.2933C12.8692 11.2854 13.4354 9.91852 13.4354 8.49322C13.4354 7.06793 12.8692 5.70101 11.8614 4.69317C10.8535 3.68534 9.48663 3.11914 8.06134 3.11914C6.63604 3.11914 5.26912 3.68534 4.26129 4.69317C3.25345 5.70101 2.68726 7.06793 2.68726 8.49322Z" fill="#BED5E9"/>
<path d="M8.05714 13.9796C5.52978 13.9796 3.34138 12.2635 2.73546 9.80628C2.0117 6.86972 3.8117 3.89156 6.74826 3.16756C7.17925 3.06111 7.62152 3.00714 8.06546 3.00684C10.5928 3.00684 12.7812 4.72292 13.3871 7.1802C14.1109 10.1168 12.3109 13.0948 9.37434 13.8188C8.94335 13.9253 8.50108 13.9792 8.05714 13.9796ZM8.06546 3.22892C7.64194 3.22892 7.21666 3.28076 6.80146 3.38316C3.98386 4.07788 2.25674 6.9354 2.95138 9.75308C3.53266 12.1108 5.63218 13.7575 8.05722 13.7575C8.48074 13.7575 8.90602 13.7056 9.32122 13.6032C12.1388 12.9086 13.8659 10.051 13.1713 7.2334C12.5899 4.87556 10.4905 3.22892 8.06546 3.22892Z" fill="#6C0000"/>
<path d="M7.99586 5.51729C4.27026 5.38489 0.2797 6.10921 0.22266 7.71289C0.16562 9.31633 4.09474 10.3222 7.82034 10.4546C11.546 10.5871 15.5366 9.86273 15.5935 8.25929C15.6506 6.65569 11.7215 5.64977 7.99586 5.51729ZM15.277 8.24809C15.2403 9.27737 12.0481 10.3165 7.83058 10.1666C3.61306 10.0166 0.50266 8.75345 0.53922 7.72417C0.57578 6.69489 3.7681 5.65545 7.98562 5.80537C12.2031 5.95529 15.3135 7.21881 15.277 8.24809Z" fill="#6B0306"/>
<path d="M3.63868 5.72532C3.50876 5.8842 3.37884 6.14164 3.31836 6.26924C4.59444 5.97812 6.1014 5.885 7.953 5.95084C10.0014 6.02364 11.6986 6.28868 12.9909 6.73244C12.9409 6.59436 12.7695 6.23612 12.7092 6.10444C11.3037 5.6854 9.73004 5.30892 7.98012 5.24668C6.38732 5.19012 5.00028 5.467 3.63868 5.72532Z" fill="#BED5E9"/>
<path d="M8.39954 10.0041C8.39954 10.1859 8.43533 10.3658 8.50489 10.5338C8.57444 10.7017 8.67638 10.8542 8.8049 10.9828C8.93342 11.1113 9.08599 11.2132 9.2539 11.2828C9.42182 11.3523 9.60179 11.3881 9.78354 11.3881C9.96529 11.3881 10.1453 11.3523 10.3132 11.2828C10.4811 11.2132 10.6337 11.1113 10.7622 10.9828C10.8907 10.8542 10.9926 10.7017 11.0622 10.5338C11.1317 10.3658 11.1675 10.1859 11.1675 10.0041C11.1675 9.82237 11.1317 9.6424 11.0622 9.47448C10.9926 9.30657 10.8907 9.154 10.7622 9.02548C10.6337 8.89696 10.4811 8.79502 10.3132 8.72547C10.1453 8.65592 9.96529 8.62012 9.78354 8.62012C9.60179 8.62012 9.42182 8.65592 9.2539 8.72547C9.08599 8.79502 8.93342 8.89696 8.8049 9.02548C8.67638 9.154 8.57444 9.30657 8.50489 9.47448C8.43533 9.6424 8.39954 9.82237 8.39954 10.0041Z" fill="#FFC700"/>
<path d="M9.78438 11.4815H9.78422C9.7667 11.4815 9.74878 11.4811 9.7311 11.4805C8.9175 11.4516 8.2791 10.7661 8.30782 9.95255C8.33678 9.13623 9.0175 8.49919 9.8359 8.52935C10.6495 8.55831 11.2879 9.24375 11.2592 10.0573C11.247 10.44 11.0861 10.8027 10.8107 11.0686C10.5354 11.3346 10.1672 11.4827 9.78438 11.4815ZM9.78262 8.71343C9.44781 8.71235 9.12578 8.84186 8.88495 9.07446C8.64413 9.30705 8.50349 9.62439 8.49294 9.95903C8.46766 10.6706 9.02598 11.2702 9.73766 11.2957L9.78446 11.2965C10.1193 11.2975 10.4413 11.1679 10.6821 10.9353C10.9229 10.7027 11.0635 10.3854 11.0741 10.0508C11.0994 9.33927 10.5411 8.73967 9.82942 8.71431L9.78262 8.71343Z" fill="#6C0000"/>
<path d="M12.3192 3.92518C12.3192 3.96383 12.3268 4.0021 12.3416 4.03781C12.3564 4.07352 12.3781 4.10596 12.4054 4.1333C12.4327 4.16063 12.4652 4.1823 12.5009 4.1971C12.5366 4.21189 12.5749 4.2195 12.6135 4.2195C12.6522 4.2195 12.6905 4.21189 12.7262 4.1971C12.7619 4.1823 12.7943 4.16063 12.8216 4.1333C12.849 4.10596 12.8707 4.07352 12.8855 4.03781C12.9002 4.0021 12.9079 3.96383 12.9079 3.92518C12.9079 3.88653 12.9002 3.84826 12.8855 3.81255C12.8707 3.77684 12.849 3.74439 12.8216 3.71706C12.7943 3.68973 12.7619 3.66805 12.7262 3.65326C12.6905 3.63847 12.6522 3.63086 12.6135 3.63086C12.5749 3.63086 12.5366 3.63847 12.5009 3.65326C12.4652 3.66805 12.4327 3.68973 12.4054 3.71706C12.3781 3.74439 12.3564 3.77684 12.3416 3.81255C12.3268 3.84826 12.3192 3.88653 12.3192 3.92518Z" fill="#FFC700"/>
<path d="M12.6137 4.31193L12.5998 4.31169C12.4973 4.30793 12.4004 4.26368 12.3305 4.18862C12.2605 4.11356 12.2232 4.01383 12.2267 3.91129C12.2299 3.81103 12.2721 3.71598 12.3442 3.6463C12.4164 3.57662 12.5128 3.53781 12.6131 3.53809C12.8403 3.54593 13.0077 3.72553 13.0001 3.93873C12.9969 4.03898 12.9548 4.13405 12.8826 4.20373C12.8105 4.27341 12.714 4.31223 12.6137 4.31193ZM12.6203 3.72329C12.504 3.72329 12.4156 3.80881 12.4119 3.91777C12.41 3.97125 12.4294 4.02329 12.4659 4.06246C12.5024 4.10163 12.5529 4.12475 12.6063 4.12673L12.6138 4.21937V4.12681C12.6661 4.12696 12.7163 4.10672 12.7539 4.07039C12.7915 4.03406 12.8135 3.9845 12.8151 3.93225C12.817 3.87876 12.7976 3.82673 12.7611 3.78755C12.7247 3.74838 12.6741 3.72527 12.6207 3.72329H12.6203Z" fill="#6C0000"/>
<path d="M0.975098 6.19355C0.975098 6.28937 0.993971 6.38425 1.03064 6.47278C1.06731 6.56131 1.12106 6.64175 1.18882 6.70951C1.25657 6.77727 1.33701 6.83101 1.42554 6.86768C1.51407 6.90435 1.60895 6.92323 1.70478 6.92323C1.8006 6.92323 1.89549 6.90435 1.98401 6.86768C2.07254 6.83101 2.15298 6.77727 2.22074 6.70951C2.2885 6.64175 2.34224 6.56131 2.37891 6.47278C2.41558 6.38425 2.43446 6.28937 2.43446 6.19355C2.43446 6.00002 2.35758 5.81443 2.22074 5.67759C2.0839 5.54074 1.8983 5.46387 1.70478 5.46387C1.51125 5.46387 1.32566 5.54074 1.18882 5.67759C1.05197 5.81443 0.975098 6.00002 0.975098 6.19355Z" fill="#FFC700"/>
<path d="M1.70517 7.01655L1.67549 7.01599C1.22237 6.99983 0.866769 6.61815 0.882849 6.16511C0.889695 5.95205 0.979307 5.75005 1.13266 5.60198C1.28602 5.45392 1.49104 5.37144 1.70421 5.37207L1.73389 5.37263C1.84188 5.37615 1.94809 5.40105 2.04639 5.4459C2.14468 5.49075 2.2331 5.55465 2.30653 5.63391C2.38036 5.71278 2.43781 5.80551 2.47557 5.90672C2.51334 6.00794 2.53066 6.11564 2.52653 6.22359C2.51972 6.43666 2.43012 6.63868 2.27675 6.78674C2.12339 6.9348 1.91834 7.01725 1.70517 7.01655ZM1.70429 5.55711C1.53911 5.55659 1.38024 5.6205 1.26144 5.73526C1.14263 5.85002 1.07325 6.00658 1.06805 6.17167C1.05557 6.52271 1.33109 6.81847 1.68205 6.83103L1.70517 6.83143C1.87034 6.83199 2.02923 6.76811 2.14804 6.65336C2.26685 6.53861 2.33622 6.38205 2.34141 6.21695C2.34465 6.13331 2.33128 6.04986 2.30205 5.97142C2.27283 5.89299 2.22835 5.82112 2.17117 5.75999C2.11425 5.69858 2.04573 5.64906 1.96956 5.6143C1.8934 5.57953 1.81109 5.5602 1.72741 5.55743L1.70429 5.55711Z" fill="#6C0000"/>
<path d="M8.40531 3.17981C8.54195 3.21437 8.18819 3.56797 8.33291 3.76205C8.47771 3.95613 8.41979 3.94461 8.47771 3.95613C8.79323 4.01917 8.98691 3.73917 9.19651 3.78645C9.28011 3.80533 9.33107 3.98573 9.40347 4.17981C9.47587 4.37389 9.70619 4.32597 9.70827 4.40901C9.71155 4.54133 9.80043 4.74149 9.65563 4.93565C9.51083 5.12973 9.02835 5.06925 8.90995 5.15493C8.75275 5.26877 7.49171 4.63861 8.33299 5.50885C8.41763 5.59637 8.78795 5.50397 8.92059 5.60925C9.49659 6.06629 9.49115 5.57357 9.63587 6.47933C9.78059 7.38509 9.55307 7.56829 9.49107 7.64389C9.13747 8.07533 8.99155 8.05965 8.93643 7.93621C8.86443 7.77501 9.49107 7.38509 8.98435 7.06157L8.47763 6.73805C8.47763 6.73805 8.12643 6.48797 8.22531 6.33501C8.28107 6.24869 8.50723 6.07141 7.92811 5.55381C7.34899 5.03621 7.09027 5.70981 6.80075 5.06285C6.51123 4.41589 6.61739 4.26149 6.61739 3.80861C6.61739 3.35573 6.60675 3.34325 6.60675 3.34325C6.60675 3.34325 7.40819 2.92773 8.40531 3.17981Z" fill="#FFEC43"/>
<path d="M9.03834 8.10418C8.99042 8.10418 8.90258 8.0873 8.85202 7.97386C8.80698 7.87306 8.87786 7.7685 8.95274 7.65778C9.0265 7.54906 9.10978 7.42586 9.08794 7.3193C9.0749 7.25658 9.02338 7.1961 8.93466 7.13946L8.42778 6.81602C8.3533 6.76306 8.0081 6.50098 8.14762 6.28474C8.15362 6.27546 8.16098 6.26538 8.1693 6.25434C8.22602 6.17882 8.33146 6.03826 7.8665 5.62274C7.67818 5.45426 7.53882 5.43266 7.4385 5.43266C7.38426 5.43266 7.33402 5.43962 7.28682 5.44594C7.2369 5.45266 7.18994 5.45858 7.1449 5.45858C6.95674 5.45858 6.82858 5.35154 6.71634 5.1005C6.48314 4.57922 6.49706 4.35602 6.51458 4.07354C6.51946 3.99418 6.5249 3.90882 6.5249 3.8085C6.5249 3.52586 6.52074 3.41978 6.51818 3.38162L6.46106 3.31434L6.5641 3.26082C6.58418 3.25042 7.06386 3.00586 7.74842 3.00586C7.9789 3.00586 8.20754 3.03418 8.42786 3.08986C8.46834 3.1001 8.49978 3.12514 8.51658 3.16034C8.5509 3.2325 8.51386 3.3121 8.4669 3.41298C8.4217 3.51026 8.35986 3.64338 8.4069 3.7065C8.46834 3.78866 8.49658 3.83826 8.5117 3.86786C8.53466 3.87146 8.55274 3.87274 8.57042 3.87274C8.67834 3.87274 8.7741 3.82482 8.86666 3.77866C8.97658 3.72378 9.09914 3.66978 9.21682 3.69602C9.33682 3.72306 9.39034 3.8717 9.4581 4.05986L9.4901 4.14722C9.51506 4.21418 9.56746 4.23482 9.64466 4.25858C9.70218 4.27626 9.79834 4.30602 9.80066 4.40658C9.80138 4.4349 9.80682 4.46674 9.81242 4.50138C9.83378 4.63258 9.86266 4.81226 9.72962 4.99058C9.61738 5.1413 9.37626 5.16794 9.18266 5.1893C9.10154 5.19826 8.9905 5.2105 8.9641 5.22954C8.88258 5.28834 8.70634 5.24906 8.49538 5.1969C8.36362 5.16426 8.22338 5.13418 8.14762 5.13226C8.16682 5.17274 8.22442 5.2633 8.39922 5.44418C8.42146 5.4581 8.52866 5.4589 8.59282 5.45938C8.73578 5.4605 8.88346 5.46162 8.97786 5.5365C9.17346 5.69162 9.2929 5.72834 9.38026 5.75514C9.60058 5.8229 9.63642 5.89578 9.7273 6.46434C9.86922 7.35354 9.66274 7.58802 9.57474 7.68818L9.56266 7.70218C9.3381 7.9765 9.17138 8.10418 9.03834 8.10418ZM7.4385 5.2477C7.6337 5.2477 7.8089 5.32306 7.98978 5.48482C8.5113 5.95074 8.44802 6.19146 8.3173 6.36546L8.30306 6.38514C8.27866 6.42306 8.39594 6.5657 8.53138 6.66266L9.03426 6.98338C9.16658 7.06786 9.24578 7.16826 9.26906 7.2817C9.30698 7.46482 9.19546 7.6293 9.10602 7.76154C9.07346 7.80962 9.0241 7.88234 9.02322 7.90714C9.03026 7.91898 9.0357 7.91898 9.03842 7.91898C9.05634 7.91898 9.15898 7.9029 9.41962 7.58498L9.43586 7.56602C9.50074 7.49234 9.67282 7.2969 9.5445 6.4937C9.46154 5.97394 9.44346 5.96834 9.32594 5.93226C9.23034 5.9029 9.08586 5.8585 8.86306 5.68162C8.81858 5.64634 8.68738 5.64538 8.59154 5.64466C8.4533 5.6437 8.33378 5.64274 8.26634 5.57306C8.0037 5.3013 7.9193 5.15314 7.96538 5.04458C7.98418 5.00018 8.0321 4.94722 8.1537 4.94722C8.25674 4.94722 8.40082 4.9829 8.53994 5.01738C8.65746 5.0465 8.77874 5.0765 8.84466 5.0765C8.8589 5.0765 8.86434 5.07498 8.86458 5.07498C8.92154 5.03202 9.02778 5.02042 9.1625 5.00546C9.3205 4.98802 9.51714 4.96634 9.58146 4.8801C9.66754 4.76458 9.64834 4.64586 9.6297 4.53106C9.62484 4.50231 9.62087 4.47341 9.61778 4.44442C9.6089 4.44146 9.59858 4.43826 9.5901 4.43554C9.5097 4.41074 9.37538 4.3693 9.31658 4.21202L9.28402 4.12266C9.2513 4.03202 9.20194 3.8949 9.1705 3.87466C9.1665 3.8745 9.15714 3.87346 9.14698 3.87346C9.09098 3.87346 9.0253 3.90626 8.94938 3.94426C8.81778 4.00994 8.66162 4.0869 8.45938 4.04674C8.40898 4.03674 8.38042 4.02218 8.35418 3.96722C8.34482 3.94762 8.32546 3.9069 8.25858 3.81722C8.14522 3.66554 8.23418 3.4745 8.29906 3.33506C8.31026 3.31082 8.32402 3.2813 8.33338 3.25754C8.14149 3.21328 7.94519 3.191 7.74826 3.19114C7.23906 3.19114 6.84482 3.33914 6.70458 3.39994C6.70834 3.47146 6.70986 3.59322 6.70986 3.80866C6.70986 3.9133 6.70442 4.00242 6.69922 4.0853C6.68258 4.35234 6.6705 4.54538 6.88506 5.02514C6.99642 5.2737 7.0857 5.2737 7.14482 5.2737C7.18202 5.2737 7.2209 5.26818 7.2621 5.26266C7.31722 5.2553 7.37562 5.2477 7.4385 5.2477Z" fill="#6B0204"/>
<path d="M3.69751 11.4338C3.69751 11.4338 3.95911 10.7104 4.32855 10.6951C4.69799 10.6797 4.74407 10.9105 4.74407 11.0336C4.74407 11.1567 4.83639 11.3876 4.95951 11.4491C5.08263 11.5107 6.05223 11.6339 6.34463 11.6954C6.63703 11.7569 6.99103 11.8647 7.06799 12.0647C7.14495 12.2648 7.02183 12.5264 6.96023 12.6803C6.89863 12.8343 6.83711 12.8343 7.00639 13.0343C7.17567 13.2344 7.40655 13.2344 7.52967 13.3883C7.65279 13.5423 7.69895 13.6962 7.69895 13.6962L7.74511 13.8193C7.74511 13.8193 6.12911 13.727 5.06719 12.9882C4.00527 12.2494 3.69751 11.4338 3.69751 11.4338Z" fill="#FFEC43"/>
<path d="M7.88155 13.9196L7.73987 13.9114C7.67283 13.9076 6.0854 13.809 5.01444 13.064C3.94108 12.3173 3.62387 11.5006 3.61083 11.4663L3.59875 11.4342L3.61051 11.4021C3.63947 11.322 3.90531 10.6198 4.32467 10.6024L4.36299 10.6016C4.65963 10.6016 4.83659 10.763 4.83659 11.0334C4.83659 11.137 4.92155 11.3265 5.00091 11.3662C5.06547 11.398 5.51283 11.467 5.80891 11.5126C6.03523 11.5475 6.24908 11.5804 6.36388 11.6047C6.82876 11.7025 7.08003 11.8381 7.15452 12.0313C7.23787 12.2478 7.13316 12.5027 7.06396 12.6714L7.04627 12.7146C7.03379 12.7459 7.02131 12.7713 7.01051 12.7935C6.97995 12.8555 6.97867 12.8579 7.07723 12.9744C7.15348 13.0646 7.24443 13.1071 7.34075 13.1521C7.43403 13.1958 7.53051 13.2408 7.60211 13.3304C7.73499 13.4963 7.78579 13.6624 7.78771 13.6694L7.88155 13.9196ZM3.79715 11.4316C3.86547 11.585 4.21179 12.2802 5.11995 12.912C5.96659 13.5009 7.19308 13.6719 7.60756 13.7143C7.57228 13.6173 7.52154 13.5268 7.45731 13.446C7.41283 13.3903 7.34291 13.3576 7.26211 13.3198C7.15731 13.2708 7.03835 13.2152 6.93563 13.094C6.78323 12.9138 6.77908 12.8439 6.8442 12.7117C6.85324 12.6932 6.86388 12.672 6.87436 12.6457L6.89243 12.6011C6.95067 12.4596 7.03851 12.2456 6.98155 12.0979C6.94827 12.0115 6.80748 11.8872 6.32556 11.7858C6.21564 11.7627 6.00435 11.73 5.7806 11.6955C5.29908 11.6212 5.00083 11.5731 4.91803 11.5317C4.75531 11.4503 4.6514 11.1822 4.6514 11.0334C4.6514 10.8674 4.55707 10.7867 4.36291 10.7867L4.3322 10.7873C4.09612 10.7972 3.87435 11.2364 3.79715 11.4316Z" fill="#6B0204"/>
</svg>
