<svg width="24" height="24" viewBox="0 0 24 24" fill="none" xmlns="http://www.w3.org/2000/svg">
<g clip-path="url(#clip0_3282_5119)">
<path d="M12 19.5C7.8645 19.5 4.5 16.1355 4.5 12C4.5 7.8645 7.8645 4.5 12 4.5C16.1355 4.5 19.5 7.8645 19.5 12C19.5 16.1355 16.1355 19.5 12 19.5ZM12 3C7.03725 3 3 7.03725 3 12C3 16.9628 7.03725 21 12 21C16.9628 21 21 16.9628 21 12C21 7.03725 16.9628 3 12 3Z" fill="#8C889A"/>
<path d="M16.4213 13.6005C16.2491 13.501 16.0445 13.4739 15.8524 13.5253C15.6603 13.5766 15.4964 13.7021 15.3968 13.8743C15.0665 14.4437 14.5927 14.9166 14.0226 15.2457C13.4525 15.5749 12.8061 15.7487 12.1478 15.75C11.4897 15.7488 10.8434 15.575 10.2735 15.246C9.70351 14.917 9.22978 14.4443 8.89955 13.875C8.8 13.7027 8.63609 13.5771 8.44389 13.5257C8.25169 13.4743 8.04693 13.5013 7.87468 13.6009C7.70242 13.7004 7.57676 13.8643 7.52535 14.0565C7.47395 14.2487 7.501 14.4535 7.60055 14.6257C8.06301 15.4225 8.72622 16.0842 9.52407 16.5447C10.3219 17.0053 11.2266 17.2487 12.1478 17.2507C13.0691 17.249 13.9739 17.0057 14.7718 16.5451C15.5697 16.0845 16.2328 15.4227 16.6951 14.6257C16.7444 14.5405 16.7765 14.4463 16.7895 14.3486C16.8025 14.2509 16.7961 14.1516 16.7707 14.0564C16.7452 13.9612 16.7013 13.8719 16.6413 13.7937C16.5814 13.7155 16.5066 13.6498 16.4213 13.6005ZM9.00005 12C9.19896 12 9.38973 11.921 9.53038 11.7803C9.67103 11.6397 9.75005 11.4489 9.75005 11.25V9C9.75005 8.80109 9.67103 8.61032 9.53038 8.46967C9.38973 8.32902 9.19896 8.25 9.00005 8.25C8.80114 8.25 8.61037 8.32902 8.46972 8.46967C8.32907 8.61032 8.25005 8.80109 8.25005 9V11.25C8.25005 11.4489 8.32907 11.6397 8.46972 11.7803C8.61037 11.921 8.80114 12 9.00005 12ZM15.0001 12C15.199 12 15.3897 11.921 15.5304 11.7803C15.671 11.6397 15.7501 11.4489 15.7501 11.25V9C15.7501 8.80109 15.671 8.61032 15.5304 8.46967C15.3897 8.32902 15.199 8.25 15.0001 8.25C14.8011 8.25 14.6104 8.32902 14.4697 8.46967C14.3291 8.61032 14.2501 8.80109 14.2501 9V11.25C14.2501 11.4489 14.3291 11.6397 14.4697 11.7803C14.6104 11.921 14.8011 12 15.0001 12Z" fill="#8C889A"/>
</g>
<defs>
<clipPath id="clip0_3282_5119">
<rect width="24" height="24" fill="white"/>
</clipPath>
</defs>
</svg>
